<?xml version="1.0" encoding="utf-8"?>
<!-- Generator: Adobe Illustrator 16.0.2, SVG Export Plug-In . SVG Version: 6.00 Build 0)  -->
<!DOCTYPE svg PUBLIC "-//W3C//DTD SVG 1.1//EN" "http://www.w3.org/Graphics/SVG/1.1/DTD/svg11.dtd">
<svg version="1.1" id="Layer_1" xmlns="http://www.w3.org/2000/svg" xmlns:xlink="http://www.w3.org/1999/xlink" x="0px" y="0px"
	 width="800px" height="800px" viewBox="0 0 800 800" enable-background="new 0 0 800 800" xml:space="preserve">
<g>
	<ellipse fill="#126CFC" cx="-322.861" cy="305.973" rx="243.139" ry="277.554"/>
	<g>
		<path fill="#FFD683" stroke="#2F64C1" stroke-width="7" stroke-miterlimit="10" d="M-513.042,462.768
			c0,41.592-11.078,75.31-24.744,75.31s-39.771-64.813-39.771-106.399c0-41.59,26.104-44.212,39.771-44.212
			C-524.12,387.459-513.042,421.177-513.042,462.768z"/>
		<path fill="#126CFC" d="M-537.787,549.37c-26.905,0-51.066-79.943-51.066-117.699c0-20.729,6.634-55.509,51.066-55.509
			c24.897,0,36.04,43.499,36.04,86.604C-501.747,505.876-512.89,549.37-537.787,549.37z M-538.485,398.758
			c-13.569,0.091-27.774,3.055-27.774,32.913c0,35.514,19.657,83.06,29.054,93.851c4.781-5.817,12.868-26.953,12.868-62.754
			C-524.338,423.522-534.061,401.895-538.485,398.758z"/>
	</g>
	<g>
		<path fill="#FFD683" stroke="#2F64C1" stroke-width="7" stroke-miterlimit="10" d="M-70.442,433.481
			c0,41.59-25.103,97.794-38.768,97.794c-13.667,0-24.74-33.72-24.74-75.308c0-41.593,11.073-75.308,24.74-75.308
			C-95.545,380.662-70.442,391.889-70.442,433.481z"/>
		<path fill="#126CFC" d="M-109.21,542.57c-24.892,0-36.039-43.489-36.039-86.603c0-43.106,11.147-86.603,36.039-86.603
			c17.315,0,50.063,13.398,50.063,64.115c0,20.268-5.653,45.989-15.121,68.817C-85.35,529.021-97.104,542.57-109.21,542.57z
			 M-108.541,391.984c-4.438,3.218-14.113,24.829-14.113,63.984c0,36.462,8.394,57.717,13.131,63.063
			c9.15-8.92,27.785-50.854,27.785-85.55C-81.738,395.538-104.249,392.263-108.541,391.984z"/>
	</g>
	<g>
		<path fill="#FFD683" stroke="#2F64C1" stroke-width="7" stroke-miterlimit="10" d="M-160.122,223.233h-324.895
			c-21.39,0-38.729,17.339-38.729,38.729c0,0-12.02,83.558-10.758,176.31c1.208,88.92,33.869,192.841,36.039,195.925
			c10.543,38.659,21.677,53.996,51.102,79.607c35.356,30.779,74.146,62.397,124.792,62.397c46.405,0,72.479-27.496,106.507-53.788
			c34.024-26.3,61.011-57.722,72.615-100.273c2.21-3.138,30.109-89.438,31.319-179.979c1.22-91.152-9.265-180.194-9.265-180.194
			C-121.393,240.573-138.732,223.233-160.122,223.233z"/>
		<path fill="#126CFC" d="M-322.57,787.497c-52.958,0-92.756-30.826-132.21-65.179c-30.346-26.413-43.155-43.251-54.583-85.152
			l0.017-0.012c-7.965-20.182-35.333-116.229-36.453-198.729c-1.195-87.844,9.559-168.564,10.763-177.297
			c0.446-27.201,22.714-49.19,50.02-49.19h324.895c27.356,0,49.65,22.068,50.021,49.338c0.934,8.223,10.427,94.21,9.27,181.039
			c-1.09,81.521-24.301,164.699-31.775,183.021c-11.123,40.563-35.449,74.261-76.551,106.018
			c-4.966,3.842-9.763,7.704-14.478,11.501C-252.128,765.813-279.04,787.497-322.57,787.497z M-488.62,628.561l0.53,0.751
			l0.521,1.911c10.054,36.861,20.201,50.193,47.62,74.063c37.477,32.614,72.168,59.615,117.378,59.615
			c35.563,0,58.361-18.373,84.759-39.646c4.836-3.896,9.75-7.854,14.844-11.786c37.089-28.662,58.895-58.625,68.628-94.306
			l0.52-1.91l0.591-0.838c3.68-9.195,28.688-90.229,29.813-174.411c1.196-89.324-9.084-177.845-9.188-178.729l-0.08-1.32
			c0-15.125-12.305-27.433-27.434-27.433h-324.898c-15.128,0-27.433,12.308-27.433,27.433l-0.116,1.608
			c-0.118,0.828-11.877,83.817-10.646,174.545C-522.069,521.972-492.485,618.442-488.62,628.561z"/>
	</g>
	<path fill="#126CFC" d="M-312.183,649.755c-100.809,0-140.323-48.053-142.3-50.542c-2.214-2.793-1.747-6.854,1.047-9.071
		c2.788-2.206,6.836-1.745,9.056,1.031c0.646,0.796,56.842,67.907,206.446,37.729c3.486-0.689,6.896,1.56,7.604,5.056
		c0.704,3.494-1.558,6.896-5.053,7.604C-264.199,647.365-289.715,649.755-312.183,649.755z"/>
	<path fill="#126CFC" d="M-536.771,338.618c-1.328,0-2.68-0.184-4.021-0.57c-7.707-2.215-12.162-10.262-9.943-17.972
		c1.008-3.502,25.483-86.035,96.303-110.817c7.57-2.663,15.854,1.336,18.505,8.911c2.649,7.57-1.342,15.854-8.912,18.504
		c-56.807,19.882-77.776,90.721-77.981,91.434C-524.65,334.473-530.46,338.618-536.771,338.618z"/>
	<path fill="#126CFC" d="M-108.964,333.469c-6.304,0-12.104-4.135-13.943-10.49c-0.245-0.826-21.524-71.696-77.989-91.455
		c-7.565-2.646-11.56-10.934-8.906-18.505c2.646-7.57,10.934-11.573,18.507-8.909c70.82,24.782,95.295,107.316,96.3,110.817
		c2.218,7.709-2.229,15.755-9.938,17.973C-106.285,333.286-107.633,333.469-108.964,333.469z"/>
	<path fill="#126CFC" d="M-498.101,399.218c-3.117,0-6.216-1.278-8.447-3.792c-4.145-4.661-3.726-11.804,0.938-15.948
		c2.39-2.125,59.116-51.79,109.193-31.038c5.761,2.393,8.496,8.996,6.104,14.762c-2.396,5.762-8.996,8.492-14.765,6.108
		c-30.817-12.796-72.189,15.195-85.53,27.056C-492.753,398.279-495.433,399.218-498.101,399.218z"/>
	<path fill="#126CFC" d="M-168.418,392.769c-3.639,0-7.206-1.752-9.391-5c-22.315-33.229-85.598-24.876-86.229-24.79
		c-6.188,0.883-11.882-3.449-12.744-9.623c-0.859-6.172,3.435-11.875,9.604-12.749c3.166-0.445,77.908-10.43,108.127,34.568
		c3.479,5.179,2.1,12.196-3.08,15.673C-164.063,392.146-166.252,392.769-168.418,392.769z"/>
	<ellipse fill="#126CFC" cx="-437.718" cy="435.113" rx="22.741" ry="21.875"/>
	<path fill="#126CFC" d="M-225.682,457.006c-12.562,0-22.74-9.802-22.74-21.896c0-12.095,10.184-21.896,22.74-21.896
		c12.563,0,22.742,9.801,22.742,21.896C-202.939,447.204-213.117,457.006-225.682,457.006z"/>
	<circle fill="#126CFC" cx="-392.715" cy="518.448" r="6.595"/>
	<path fill="#126CFC" d="M-477.612,609.181c-2.961,0-5.627-2.044-6.295-5.056c-0.772-3.477,1.412-6.914,4.881-7.695
		c1.028-0.233,24.883-5.935,28.401-27.04c0.586-3.515,3.915-5.894,7.428-5.305c3.517,0.587,5.892,3.912,5.305,7.43
		c-4.961,29.771-36.956,37.209-38.313,37.515C-476.679,609.131-477.15,609.181-477.612,609.181z"/>
	<path fill="#126CFC" d="M-292.566,690.409c-0.653,0-1.322-0.104-1.983-0.313c-49.724-16.084-65.917-1.725-66.066-1.578
		c-2.52,2.523-6.606,2.523-9.128,0c-2.521-2.521-2.521-6.604,0-9.126c2.104-2.104,22.193-20.004,79.168-1.576
		c3.393,1.103,5.251,4.735,4.152,8.128C-287.313,688.669-289.845,690.407-292.566,690.409z"/>
	<g>
		<path fill="#126CFC" d="M-299.217,520.193c0.625-10.159,0.413-20.844-0.749-31.458c-3.021-27.503-2.58-46.483-12.588-61.673
			c-6.664-10.105-9.375-13.845-18.27-13.845c-8.646,0-11.254,3.39-17.813,13.008c-10.315,15.108-10.268,33.146-13.149,61.154
			c-1.081,10.482-1.242,20.813-0.619,30.59c-2.014,2.419-28.771,35.089-11.401,45.998c9.939,6.243,14.401,7.215,21.174,6.867
			c4.979,6.999,16.229,11.125,22.867,11.125c6.537,0,17.011-4.451,21.676-11.384c6.474-0.12,10.025-1.285,18.509-6.608
			C-274.396,554.426-292.972,528.229-299.217,520.193z"/>
		<path fill="#126CFC" d="M-329.77,583.577c-6.41,0-17.948-3.854-23.649-11.096c-7.063,0.292-11.96-1.313-21.252-7.146
			c-3.573-2.245-5.715-5.479-6.372-9.602c-2.211-13.898,13.674-34.237,16.988-38.307c-0.604-9.966-0.377-20.128,0.663-30.218
			c0.462-4.479,0.849-8.694,1.213-12.688c1.92-21.002,3.308-36.179,12.209-49.217c6.653-9.75,9.729-13.711,19.147-13.711
			c9.62,0,12.776,4.209,19.612,14.57c8.234,12.495,9.606,27.695,11.346,46.938c0.438,4.837,0.897,9.976,1.498,15.443
			c1.128,10.297,1.396,20.771,0.794,31.127c5.573,7.246,17.305,24.236,15.167,36.318c-0.704,3.998-2.833,7.137-6.319,9.333
			c-8.23,5.165-12.061,6.605-18.521,6.833C-312.325,579.021-322.817,583.577-329.77,583.577z M-351.836,569.178l0.514,0.725
			c4.789,6.729,15.783,10.446,21.557,10.446c6.224,0,16.104-4.384,20.338-10.671l0.467-0.695l0.843-0.019
			c5.929-0.106,9.144-1.002,17.677-6.361c2.729-1.713,4.318-4.056,4.866-7.155c2.013-11.396-10.899-29.104-14.909-34.263
			l-0.373-0.479l0.036-0.608c0.64-10.376,0.39-20.868-0.745-31.182c-0.603-5.498-1.064-10.655-1.507-15.514
			c-1.761-19.522-3.032-33.638-10.821-45.447c-6.717-10.188-9.004-13.123-16.914-13.123c-7.746,0-9.974,2.757-16.484,12.306
			c-8.43,12.348-9.787,27.172-11.662,47.689c-0.368,4.003-0.753,8.23-1.216,12.722c-1.043,10.13-1.25,20.328-0.614,30.319
			l0.041,0.645l-0.411,0.494c-7.004,8.402-18.396,25.492-16.688,36.229c0.509,3.208,2.108,5.619,4.898,7.369
			c10.245,6.438,14.227,6.927,20.231,6.622L-351.836,569.178z"/>
	</g>
</g>
<g>
	<g>
		<path fill="#126CFC" d="M1175.508,767.006c-52.958,0-92.756-30.826-132.211-65.179c-30.346-26.413-43.154-43.251-54.582-85.152
			l0.017-0.012c-7.965-20.182-35.333-116.229-36.452-198.729c-1.195-87.844,9.559-168.564,10.764-177.297
			c0.445-27.201,22.714-49.19,50.02-49.19h324.896c27.357,0,49.65,22.068,50.021,49.338c0.934,8.224,10.428,94.21,9.27,181.04
			c-1.09,81.521-24.301,164.698-31.775,183.021c-11.123,40.563-35.447,74.261-76.551,106.019c-4.965,3.841-9.762,7.703-14.477,11.5
			C1245.951,745.32,1219.039,767.006,1175.508,767.006z M1009.457,608.07l0.531,0.752l0.521,1.909
			c10.054,36.861,20.2,50.193,47.62,74.063c37.478,32.614,72.168,59.615,117.379,59.615c35.563,0,58.361-18.373,84.758-39.646
			c4.836-3.896,9.75-7.854,14.846-11.786c37.09-28.662,58.895-58.625,68.629-94.306l0.52-1.91l0.592-0.838
			c3.68-9.195,28.688-90.229,29.813-174.411c1.197-89.324-9.084-177.845-9.188-178.729l-0.08-1.32
			c0-15.125-12.307-27.433-27.436-27.433h-324.9c-15.128,0-27.434,12.308-27.434,27.433l-0.115,1.608
			c-0.118,0.828-11.877,83.817-10.646,174.545C976.009,501.48,1005.593,597.951,1009.457,608.07z"/>
	</g>
	<g>
		<path fill="#126CFC" d="M1396.416,349.638c0.338,7.731,0.627,15.689,0.854,23.799c8.086,3.465,19.068,13.044,19.068,39.556
			c0,30.598-13.762,66.234-26.188,81.059c-1.342,9.651-2.859,19.026-4.479,27.995c0.396,0.021,2.793,0.035,3.195,0.035
			c12.104,0,23.859-13.548,34.939-40.271c9.471-22.828,15.121-48.552,15.121-68.817
			C1438.932,368.96,1414.254,353.065,1396.416,349.638z"/>
	</g>
	<g>
		<path fill="#126CFC" d="M961.965,504.909c-0.03,0.038-1.063,0.083-1.092,0.118c-9.397-10.791-28.055-58.336-28.055-93.85
			c0-25.021,9.975-31.152,21.19-32.537c0.196-7.729,0.466-15.308,0.79-22.685c-38.576,3.25-44.575,35.55-44.575,55.222
			c0,37.756,24.161,117.699,51.065,117.699c1.707,0,3.349-0.212,4.928-0.606C964.724,520.695,963.291,512.882,961.965,504.909z"/>
	</g>
	<path fill="#126CFC" d="M1185.895,629.264c-100.811,0-140.322-48.053-142.301-50.542c-2.215-2.793-1.747-6.854,1.047-9.071
		c2.788-2.205,6.836-1.746,9.057,1.031c0.646,0.796,56.842,67.907,206.447,37.729c3.484-0.689,6.895,1.56,7.604,5.056
		c0.705,3.494-1.557,6.896-5.053,7.604C1233.879,626.874,1208.363,629.264,1185.895,629.264z"/>
	<path fill="#126CFC" d="M961.307,318.126c-1.328,0-2.68-0.184-4.021-0.569c-7.707-2.216-12.162-10.263-9.942-17.972
		c1.008-3.502,25.483-86.035,96.303-110.817c7.57-2.663,15.854,1.336,18.507,8.911c2.647,7.57-1.344,15.854-8.912,18.504
		c-56.809,19.882-77.776,90.721-77.981,91.434C973.428,313.981,967.617,318.126,961.307,318.126z"/>
	<path fill="#126CFC" d="M1389.115,312.978c-6.305,0-12.105-4.135-13.943-10.489c-0.246-0.827-21.523-71.697-77.99-91.456
		c-7.563-2.646-11.559-10.934-8.904-18.505c2.645-7.569,10.934-11.573,18.508-8.909c70.82,24.782,95.295,107.316,96.299,110.817
		c2.219,7.709-2.229,15.755-9.938,17.973C1391.793,312.794,1390.445,312.978,1389.115,312.978z"/>
	<path fill="#126CFC" d="M999.976,378.727c-3.116,0-6.216-1.278-8.446-3.792c-4.146-4.661-3.727-11.805,0.938-15.948
		c2.392-2.125,59.116-51.789,109.192-31.038c5.762,2.394,8.496,8.997,6.104,14.763c-2.396,5.762-8.996,8.491-14.767,6.107
		c-30.816-12.796-72.188,15.195-85.529,27.057C1005.324,377.788,1002.644,378.727,999.976,378.727z"/>
	<path fill="#126CFC" d="M1329.66,372.277c-3.639,0-7.205-1.752-9.391-5c-22.314-33.229-85.6-24.876-86.23-24.791
		c-6.188,0.884-11.883-3.447-12.744-9.622c-0.857-6.172,3.436-11.875,9.605-12.749c3.166-0.445,77.906-10.43,108.127,34.568
		c3.479,5.179,2.1,12.196-3.08,15.673C1334.016,371.654,1331.826,372.277,1329.66,372.277z"/>
	<ellipse fill="#126CFC" cx="1060.359" cy="414.622" rx="22.741" ry="21.875"/>
	<path fill="#126CFC" d="M1272.396,436.515c-12.563,0-22.74-9.802-22.74-21.896c0-12.095,10.184-21.896,22.74-21.896
		c12.563,0,22.74,9.801,22.74,21.896C1295.137,426.713,1284.961,436.515,1272.396,436.515z"/>
	<circle fill="#126CFC" cx="1105.363" cy="497.957" r="6.595"/>
	<path fill="#126CFC" d="M1020.466,588.689c-2.962,0-5.627-2.044-6.296-5.056c-0.771-3.477,1.412-6.914,4.882-7.695
		c1.028-0.233,24.883-5.935,28.401-27.04c0.586-3.515,3.914-5.894,7.428-5.305c3.517,0.587,5.892,3.912,5.305,7.43
		c-4.961,29.771-36.956,37.209-38.313,37.515C1021.397,588.64,1020.928,588.689,1020.466,588.689z"/>
	<path fill="#126CFC" d="M1205.51,669.918c-0.65,0-1.32-0.104-1.98-0.313c-49.725-16.084-65.916-1.725-66.065-1.578
		c-2.521,2.523-6.604,2.523-9.128,0c-2.521-2.521-2.521-6.604,0-9.126c2.104-2.104,22.193-20.004,79.168-1.576
		c3.395,1.103,5.252,4.735,4.152,8.128C1210.766,668.178,1208.234,669.916,1205.51,669.918z"/>
	<g>
		<path fill="#126CFC" d="M1198.859,499.702c0.625-10.159,0.414-20.844-0.748-31.458c-3.021-27.503-2.58-46.483-12.588-61.672
			c-6.664-10.106-9.375-13.846-18.271-13.846c-8.646,0-11.254,3.389-17.813,13.009c-10.314,15.107-10.27,33.146-13.148,61.153
			c-1.082,10.482-1.242,20.813-0.619,30.59c-2.014,2.419-28.771,35.089-11.4,45.998c9.938,6.243,14.4,7.215,21.174,6.867
			c4.979,6.999,16.229,11.125,22.867,11.125c6.537,0,17.012-4.451,21.676-11.384c6.475-0.12,10.023-1.285,18.51-6.608
			C1223.682,533.935,1205.105,507.738,1198.859,499.702z"/>
		<path fill="#126CFC" d="M1168.308,563.086c-6.41,0-17.948-3.854-23.649-11.096c-7.063,0.292-11.959-1.313-21.252-7.146
			c-3.572-2.245-5.715-5.479-6.371-9.602c-2.211-13.898,13.674-34.237,16.987-38.307c-0.604-9.966-0.377-20.128,0.663-30.218
			c0.462-4.479,0.85-8.694,1.213-12.688c1.92-21.001,3.309-36.179,12.209-49.216c6.653-9.752,9.729-13.713,19.146-13.713
			c9.619,0,12.775,4.209,19.611,14.571c8.234,12.495,9.605,27.695,11.346,46.938c0.439,4.836,0.896,9.975,1.498,15.442
			c1.127,10.297,1.396,20.771,0.793,31.127c5.574,7.246,17.309,24.236,15.17,36.318c-0.705,3.998-2.834,7.137-6.318,9.333
			c-8.232,5.165-12.064,6.606-18.523,6.833C1185.752,558.531,1175.262,563.086,1168.308,563.086z M1146.242,548.687l0.514,0.725
			c4.789,6.729,15.783,10.446,21.558,10.446c6.224,0,16.103-4.384,20.337-10.671l0.467-0.696l0.844-0.018
			c5.93-0.107,9.145-1.002,17.68-6.361c2.729-1.713,4.316-4.056,4.865-7.155c2.014-11.396-10.9-29.104-14.912-34.263l-0.373-0.479
			l0.037-0.608c0.641-10.376,0.391-20.867-0.746-31.182c-0.602-5.498-1.063-10.655-1.504-15.514
			c-1.764-19.522-3.033-33.638-10.822-45.447c-6.717-10.188-9.002-13.123-16.913-13.123c-7.745,0-9.975,2.757-16.483,12.306
			c-8.43,12.348-9.787,27.172-11.662,47.689c-0.368,4.003-0.754,8.23-1.217,12.722c-1.043,10.13-1.25,20.328-0.613,30.319
			l0.041,0.645l-0.411,0.494c-7.004,8.402-18.396,25.492-16.688,36.229c0.51,3.209,2.107,5.619,4.897,7.369
			c10.245,6.438,14.228,6.928,20.231,6.623L1146.242,548.687z"/>
	</g>
	<path fill="#126CFC" d="M964.027,411.36c-1.264-92.75,10.758-176.308,10.758-176.308c0-21.39,17.338-38.729,38.729-38.729h324.896
		c21.389,0,38.729,17.34,38.727,38.733c0,0,10.484,89.042,9.268,180.194c-0.037,2.748-0.102,5.492-0.186,8.229
		c20.445-40.646,32.139-87.766,32.139-138c0-153.289-108.857-277.554-243.141-277.554c-134.282,0-243.139,124.266-243.139,277.555
		c0,50.379,11.761,97.622,32.314,138.352C964.207,419.65,964.082,415.488,964.027,411.36z"/>
</g>
<g>
	<path fill="none" stroke="#126CFC" stroke-width="27" stroke-linejoin="round" stroke-miterlimit="10" d="M620,664.131
		C620,684.59,603.663,705,581.607,705H225.503C203.448,705,184,684.59,184,664.131V126.922C184,106.457,203.448,96,225.503,96
		h356.104C603.663,96,620,106.457,620,126.922V664.131z"/>
	<path fill="#126CFC" d="M278.886,215.5h-0.267c0.101-2,0.133-2.197,0.133-3.328C278.752,213.303,278.786,213.5,278.886,215.5z"/>
	<path fill="#126CFC" d="M372.072,215.5h-0.267c0.101-2,0.134-2.197,0.134-3.328C371.939,213.303,371.971,213.5,372.072,215.5z"/>
	<path fill="#126CFC" d="M465.258,215.5h-0.267c0.102-2,0.134-2.197,0.134-3.328C465.125,213.303,465.158,213.5,465.258,215.5z"/>
	<path fill="#126CFC" d="M558.412,215.5h-0.233c0.1-2,0.133-2.197,0.133-3.328C558.312,213.303,558.344,213.5,558.412,215.5z"/>
	<path fill="none" stroke="#126CFC" stroke-width="24" stroke-linejoin="round" stroke-miterlimit="10" d="M325.5,460.563
		c0,22.057-17.88,39.938-39.936,39.938h-14.128c-22.056,0-39.936-17.881-39.936-39.938V340.438c0-22.057,17.88-39.938,39.936-39.938
		h14.128c22.056,0,39.936,17.881,39.936,39.938V460.563z"/>
	<path fill="none" stroke="#126CFC" stroke-width="24" stroke-linejoin="round" stroke-miterlimit="10" d="M582.5,460.563
		c0,22.057-17.88,39.938-39.937,39.938h-14.127c-22.057,0-39.937-17.881-39.937-39.938V340.438c0-22.057,17.88-39.938,39.937-39.938
		h14.127c22.057,0,39.937,17.881,39.937,39.938V460.563z"/>
	<path fill="none" stroke="#126CFC" stroke-width="20" stroke-linejoin="round" stroke-miterlimit="10" d="M567.5,586.46
		c0,16.709-15.422,35.04-37.478,35.04H283.745c-22.056,0-43.245-18.331-43.245-35.04v-7.562c0-16.712,21.189-27.398,43.245-27.398
		h246.278c22.056,0,37.478,10.687,37.478,27.398V586.46z"/>
	<path fill="#126CFC" d="M320.5,454.071c0,11.835-9.594,21.429-21.428,21.429h-0.144c-11.834,0-21.428-9.594-21.428-21.429v-57.143
		c0-11.835,9.594-21.429,21.428-21.429h0.144c11.834,0,21.428,9.594,21.428,21.429V454.071z"/>
	<path fill="#126CFC" d="M583.5,454.071c0,11.835-9.594,21.429-21.428,21.429h-0.145c-11.834,0-21.428-9.594-21.428-21.429v-57.143
		c0-11.835,9.594-21.429,21.428-21.429h0.145c11.834,0,21.428,9.594,21.428,21.429V454.071z"/>
	<path fill="#126CFC" d="M436.5,488.23c0,18.374-14.896,33.27-33.27,33.27h-0.461c-18.374,0-33.27-14.896-33.27-33.27V434.77
		c0-18.374,14.896-33.27,33.27-33.27h0.461c18.374,0,33.27,14.896,33.27,33.27V488.23z"/>
	<path fill="#126CFC" d="M620.5,201.967v13.313c0,22.064-2.117,40.221-19.724,40.221h-10.614c-16.676,0-30.385-17.914-31.75-38.415
		c-0.068-1.099-0.101-3.1-0.101-4.231c0,1.131-0.033,3.583-0.133,4.682c-1.697,20.502-18.871,37.964-39.805,37.964h-13.312
		c-20.935,0-38.107-17.914-39.805-38.415c-0.1-1.099-0.133-3.1-0.133-4.231c0,1.131-0.032,3.583-0.134,4.682
		c-1.695,20.502-18.869,37.964-39.804,37.964h-13.313c-20.933,0-38.106-17.914-39.803-38.415c-0.102-1.099-0.133-3.1-0.133-4.231
		c0,1.131-0.033,3.583-0.134,4.682c-1.697,20.502-18.871,37.964-39.804,37.964H318.69c-20.934,0-38.107-17.914-39.804-38.415
		c-0.1-1.099-0.133-3.1-0.133-4.231c0,1.131-0.032,3.583-0.133,4.682c-1.696,20.502-18.87,37.964-39.804,37.964h-13.313
		c-22.064,0-42.003-21.484-42.003-43.549V99.297c0-4.229,19.938-3.797,42.003-3.797h356.104c22.065,0,38.893-0.432,38.893,3.797
		v69.623C620.5,179.086,620.5,190.186,620.5,201.967z"/>
	<line fill="none" stroke="#126CFC" stroke-width="24" stroke-miterlimit="10" x1="295.5" y1="554.5" x2="295.5" y2="621.5"/>
	<line fill="none" stroke="#126CFC" stroke-width="24" stroke-miterlimit="10" x1="348.5" y1="554.5" x2="348.5" y2="621.5"/>
	<line fill="none" stroke="#126CFC" stroke-width="24" stroke-miterlimit="10" x1="401.5" y1="554.5" x2="401.5" y2="621.5"/>
	<line fill="none" stroke="#126CFC" stroke-width="24" stroke-miterlimit="10" x1="454.5" y1="554.5" x2="454.5" y2="621.5"/>
	<line fill="none" stroke="#126CFC" stroke-width="24" stroke-miterlimit="10" x1="507.5" y1="554.5" x2="507.5" y2="621.5"/>
	<path fill="none" stroke="#126CFC" stroke-width="24" stroke-linejoin="round" stroke-miterlimit="10" d="M178.5,599.688
		c0,13.703-11.108,24.812-24.811,24.812h-0.378c-13.703,0-24.811-11.108-24.811-24.812V492.312
		c0-13.703,11.108-24.812,24.811-24.812h0.378c13.703,0,24.811,11.108,24.811,24.812V599.688z"/>
	<path fill="none" stroke="#126CFC" stroke-width="24" stroke-linejoin="round" stroke-miterlimit="10" d="M671.5,599.688
		c0,13.703-11.108,24.812-24.812,24.812h-0.377c-13.703,0-24.812-11.108-24.812-24.812V492.312
		c0-13.703,11.108-24.812,24.812-24.812h0.377c13.703,0,24.812,11.108,24.812,24.812V599.688z"/>
</g>
</svg>
