<?xml version="1.0" encoding="utf-8"?>
<!-- Generator: Adobe Illustrator 16.0.2, SVG Export Plug-In . SVG Version: 6.00 Build 0)  -->
<!DOCTYPE svg PUBLIC "-//W3C//DTD SVG 1.1//EN" "http://www.w3.org/Graphics/SVG/1.1/DTD/svg11.dtd">
<svg version="1.1" id="Layer_1" xmlns="http://www.w3.org/2000/svg" xmlns:xlink="http://www.w3.org/1999/xlink" x="0px" y="0px"
	 width="100px" height="100px" viewBox="0 0 100 100" enable-background="new 0 0 100 100" xml:space="preserve">
<path fill="#126CFC" d="M100,100c-33.373,0-66.652,0-100,0C0,66.663,0,33.37,0,0c33.302,0,66.609,0,100,0
	C100,33.29,100,66.605,100,100z M92.525,92.323c0-28.28,0-56.466,0-84.626c-28.405,0-56.731,0-85.042,0c0,28.255,0,56.417,0,84.626
	C35.848,92.323,64.148,92.323,92.525,92.323z"/>
<g>
	<path fill="#126CFC" d="M58.157,73.284c-0.13,0-0.226,0-0.318,0c-3.015,0-6.028-0.004-9.044,0.008
		c-0.251,0-0.339-0.084-0.405-0.313c-1.091-3.781-2.194-7.56-3.283-11.341c-0.072-0.25-0.178-0.327-0.431-0.327
		c-4.077,0.008-8.154,0.008-12.23,0.002c-0.245,0-0.346,0.082-0.412,0.315c-1.087,3.771-2.187,7.541-3.271,11.313
		c-0.077,0.271-0.188,0.353-0.466,0.351c-2.68-0.012-5.359-0.006-8.039-0.006c-0.104,0-0.207,0-0.35,0
		c0.08-0.289,0.147-0.543,0.222-0.797c4.025-13.74,8.052-27.479,12.074-41.22c0.053-0.18,0.075-0.375,0.076-0.563
		c0.006-1.311,0.003-2.622,0.003-3.933c0-0.113,0-0.226,0-0.377c0.131,0,0.233,0,0.335,0c3.703,0,7.407,0.003,11.11-0.007
		c0.265,0,0.354,0.095,0.426,0.331C47.709,38.548,51.27,50.375,54.83,62.2c1.079,3.586,2.156,7.172,3.232,10.758
		C58.094,73.057,58.12,73.155,58.157,73.284z M43.279,53.13C41.698,47,40.125,40.899,38.55,34.797
		c-0.026,0.002-0.053,0.004-0.08,0.006C36.898,40.902,35.324,47,33.744,53.129C36.933,53.13,40.083,53.13,43.279,53.13z"/>
	<path fill="#126CFC" d="M71.833,73.271c-3.168,0-6.293,0-9.453,0c0-0.127,0-0.238,0-0.353c0-11.639,0-23.276,0-34.915
		c0-0.371,0-0.372,0.377-0.372c2.9,0,5.802,0,8.701,0c0.373,0,0.375,0.001,0.375,0.378c0,11.639,0,23.278,0,34.917
		C71.833,73.03,71.833,73.134,71.833,73.271z"/>
	<path fill="#126CFC" d="M67.175,23.625c2.707,0.003,4.89,2.173,4.884,4.859c-0.004,2.66-2.224,4.836-4.925,4.831
		c-2.694-0.005-4.875-2.191-4.866-4.882C62.273,25.78,64.479,23.622,67.175,23.625z"/>
</g>
</svg>
