<?xml version="1.0" encoding="utf-8"?>
<!-- Generator: Adobe Illustrator 16.0.2, SVG Export Plug-In . SVG Version: 6.00 Build 0)  -->
<!DOCTYPE svg PUBLIC "-//W3C//DTD SVG 1.1//EN" "http://www.w3.org/Graphics/SVG/1.1/DTD/svg11.dtd">
<svg version="1.1" id="Layer_1" xmlns="http://www.w3.org/2000/svg" xmlns:xlink="http://www.w3.org/1999/xlink" x="0px" y="0px"
	 width="100px" height="100px" viewBox="0 0 100 100" enable-background="new 0 0 100 100" xml:space="preserve">
<path fill="#126CFC" d="M100,100c-33.373,0-66.652,0-100,0C0,66.663,0,33.37,0,0c33.302,0,66.609,0,100,0
	C100,33.29,100,66.605,100,100z M92.525,92.323c0-28.28,0-56.466,0-84.626c-28.405,0-56.731,0-85.042,0c0,28.255,0,56.417,0,84.626
	C35.848,92.323,64.148,92.323,92.525,92.323z"/>
<g>
	<path fill="#126CFC" d="M22.505,27.517c1.592-0.078,3.185-0.219,4.78-0.223c3.736-0.008,7.492-0.178,11.208,0.125
		c7.996,0.655,13.19,6.527,13.192,14.568c0,8.828-5.805,15.121-14.635,15.771c-1.904,0.143-3.829,0.021-5.915,0.021
		c0,0.436,0,0.81,0,1.186c0,3.994-0.023,7.986,0.014,11.98c0.008,0.877-0.251,1.188-1.153,1.168c-2.209-0.057-4.421-0.03-6.63-0.012
		c-0.624,0.006-1-0.088-0.998-0.857c0.017-14.439,0.013-28.878,0.018-43.317C22.388,27.858,22.425,27.792,22.505,27.517z
		 M31.218,34.121c0,5.604,0,11.07,0,16.586c1.313,0.068,2.555,0.206,3.794,0.186c3.756-0.065,6.727-2.235,7.374-5.723
		c0.341-1.841,0.256-3.826,0.003-5.697c-0.265-1.971-1.437-3.548-3.253-4.508C36.605,33.625,33.906,34,31.218,34.121z"/>
	<path fill="#126CFC" d="M54.693,65.855c0-0.963-0.017-1.928,0.004-2.891c0.017-0.922,0.293-1.083,1.097-0.6
		c2.375,1.435,4.917,2.428,7.666,2.777c1.11,0.144,2.272,0.098,3.388-0.053c1.002-0.135,1.772-0.76,1.965-1.845
		c0.197-1.112-0.117-2.076-1.098-2.694c-0.869-0.548-1.793-1.008-2.697-1.499c-2-1.083-4.056-2.069-5.992-3.254
		c-6.434-3.938-5.527-13.773,1.043-17.013c4.986-2.458,10.006-1.996,14.899,0.377c0.386,0.188,0.718,0.887,0.735,1.361
		c0.066,1.707-0.008,3.418-0.042,5.128c-0.021,1.074-0.156,1.163-1.116,0.68c-2.543-1.281-5.193-2.224-8.077-2.013
		c-0.928,0.068-1.948,0.474-2.694,1.035c-1.097,0.823-1.127,2.291-0.059,3.157c1.088,0.881,2.387,1.51,3.619,2.206
		c2.135,1.203,4.357,2.261,6.421,3.577c5.716,3.645,4.896,13.223-1.058,16.477c-4.395,2.399-8.971,2.488-13.639,1.004
		c-1.111-0.354-2.16-0.906-3.229-1.391c-0.833-0.379-1.216-1.015-1.149-1.964C54.742,67.57,54.693,66.711,54.693,65.855z"/>
</g>
</svg>
