<?xml version="1.0" standalone="no"?>
<!DOCTYPE svg PUBLIC "-//W3C//DTD SVG 1.1//EN" "http://www.w3.org/Graphics/SVG/1.1/DTD/svg11.dtd" >
<svg xmlns="http://www.w3.org/2000/svg">
<metadata></metadata>
<defs>
<font id="now_altmedium" horiz-adv-x="1239" >
<font-face units-per-em="2048" ascent="1638" descent="-410" />
<missing-glyph horiz-adv-x="614" />
<glyph unicode="&#xfb01;" horiz-adv-x="1338" d="M51 819v205h172v463q0 139 102.5 237.5t245.5 98.5q103 0 148 -31v-189h-120q-57 0 -95 -40t-38 -106v-433h258v-205h-258v-819h-243v819h-172zM891 1349q0 61 43 103.5t103 42.5t103 -42.5t43 -103.5q0 -58 -43.5 -100.5t-102.5 -42.5t-102.5 42.5t-43.5 100.5zM916 0 v1024h241v-1024h-241z" />
<glyph unicode="&#xfb02;" horiz-adv-x="1315" d="M51 819v205h172v463q0 139 102.5 237.5t245.5 98.5q103 0 148 -31v-189h-120q-57 0 -95 -40t-38 -106v-433h258v-205h-258v-819h-243v819h-172zM904 0v1823h243v-1823h-243z" />
<glyph horiz-adv-x="0" />
<glyph horiz-adv-x="682" />
<glyph unicode=" "  horiz-adv-x="614" />
<glyph unicode="&#x09;" horiz-adv-x="614" />
<glyph unicode="&#xa0;" horiz-adv-x="614" />
<glyph unicode="!" horiz-adv-x="673" d="M192 125q0 59 42 101.5t101 42.5t102.5 -42.5t43.5 -101.5t-43.5 -102t-102.5 -43t-101 43t-42 102zM215 1651h241l-28 -1167h-185z" />
<glyph unicode="&#x22;" horiz-adv-x="1000" d="M192 1556h228l-28 -688h-172zM581 1556h228l-28 -688h-172z" />
<glyph unicode="#" horiz-adv-x="1684" d="M141 346l25 174h287l67 430h-292l28 174h284l51 351h172l-49 -351h364l48 351h174l-48 -351h289l-28 -174h-287l-59 -430h287l-23 -174h-287l-53 -346h-172l49 346h-366l-46 -346h-175l49 346h-289zM630 520h361l64 430h-366z" />
<glyph unicode="$" horiz-adv-x="1162" d="M56 307l215 131q41 -100 127 -159t201 -59q109 0 178.5 54t69.5 146q0 52 -25 93t-67 69.5t-96.5 52.5t-114.5 47t-120.5 48.5t-115 61t-96.5 80t-67 110.5t-25 147q0 173 102.5 282t261.5 138v159h223v-167q194 -42 312 -189l-177 -162q-106 134 -263 134 q-90 0 -149 -45.5t-59 -131.5q0 -50 25 -89.5t67 -67t96.5 -51t114.5 -46.5t120.5 -49t115 -63.5t96.5 -85t67 -118t25 -157.5q0 -173 -109 -287.5t-282 -142.5v-159h-223v159q-145 24 -258.5 109.5t-169.5 207.5z" />
<glyph unicode="%" horiz-adv-x="1646" d="M118 1208q0 144 88.5 246t215.5 102t216 -102t89 -246t-89 -246t-216 -102t-215.5 102t-88.5 246zM177 0l1042 1536h250l-1041 -1536h-251zM302 1208q0 -68 35.5 -116t84.5 -48t86 48t37 116t-37 116t-86 48t-84.5 -48t-35.5 -116zM919 328q0 144 89 246t216 102 q128 0 216 -101.5t88 -246.5t-88 -246.5t-216 -101.5q-127 0 -216 102t-89 246zM1103 328q0 -68 36 -116t85 -48t84.5 48t35.5 116t-35.5 116t-84.5 48t-85 -48t-36 -116z" />
<glyph unicode="&#x26;" horiz-adv-x="1436" d="M197 433q0 100 46 190t126 153q-77 65 -120.5 155t-43.5 193q0 179 119 298.5t293 113.5h346v-228h-303q-88 -2 -150 -55.5t-62 -144.5q0 -99 73.5 -165.5t179.5 -66.5h262v238h240v-238h154v-218h-154v-197q0 -201 -138.5 -331t-357.5 -130q-141 0 -257.5 55 t-184.5 154.5t-68 223.5zM425 438q0 -99 81 -162.5t195 -63.5q119 0 190.5 70t71.5 179v197h-300q-99 0 -168.5 -64t-69.5 -156z" />
<glyph unicode="'" horiz-adv-x="611" d="M192 1556h228l-28 -606h-172z" />
<glyph unicode="(" horiz-adv-x="821" d="M151 620q0 261 29.5 468t81.5 347t126.5 233t160.5 136t188 47v-174q-82 -6 -147.5 -65t-117.5 -179.5t-80 -326.5t-28 -486q0 -278 28 -483t80 -325.5t117.5 -179.5t147.5 -65v-174q-102 4 -188 46.5t-160.5 135t-126.5 231.5t-81.5 346t-29.5 468z" />
<glyph unicode=")" horiz-adv-x="821" d="M84 -433q81 6 146.5 65t117.5 179.5t81 326t29 482.5q0 279 -29 485.5t-81 327t-117.5 179.5t-146.5 65v174q101 -4 187 -47t161 -136t127 -232.5t82 -347t30 -468.5t-30 -468t-82 -346t-127 -231.5t-161 -135t-187 -46.5v174z" />
<glyph unicode="*" horiz-adv-x="750" d="M110 1211v125l192 -20l-113 156l108 64l79 -177l80 177l110 -64l-118 -156l195 20v-125l-195 23l118 -156l-110 -64l-80 176l-79 -176l-108 64l113 156z" />
<glyph unicode="+" horiz-adv-x="1651" d="M192 535v200h535v535h200v-535h535v-200h-535v-535h-200v535h-535z" />
<glyph unicode="," horiz-adv-x="524" d="M10 -338l256 602h249l-336 -602h-169z" />
<glyph unicode="-" horiz-adv-x="965" d="M123 435v195h717v-195h-717z" />
<glyph unicode="." horiz-adv-x="578" d="M123 146q0 68 49.5 117t116.5 49q68 0 117.5 -49.5t49.5 -116.5t-49.5 -116.5t-117.5 -49.5q-67 0 -116.5 49t-49.5 117z" />
<glyph unicode="/" horiz-adv-x="1415" d="M-41 -614l1270 2437h228l-1268 -2437h-230z" />
<glyph unicode="0" horiz-adv-x="1413" d="M143 768q0 232 62.5 407.5t191.5 278t310 102.5q179 0 307.5 -102t192 -278.5t63.5 -407.5t-63.5 -407.5t-192 -278.5t-307.5 -102q-181 0 -310 102.5t-191.5 278t-62.5 407.5zM389 768q0 -261 78.5 -411t239.5 -150q109 0 181 72t104 195t32 294t-32 294t-104 195 t-181 72q-161 0 -239.5 -150t-78.5 -411z" />
<glyph unicode="1" horiz-adv-x="819" d="M82 1308v228h491v-1536h-245v1308h-246z" />
<glyph unicode="2" horiz-adv-x="1213" d="M-3 0l623 737q131 153 170 223t39 141q0 114 -65 171t-162 57q-101 2 -167 -64.5t-59 -176.5h-248q-7 137 58 246t178 167t250 58q197 -2 328.5 -121.5t135.5 -308.5q1 -68 -11 -122t-48.5 -118.5t-84.5 -127.5t-138 -170l-310 -363h630v-228h-1119z" />
<glyph unicode="3" horiz-adv-x="1256" d="M123 425l248 3q0 -89 72 -151t171 -62q109 0 181.5 74.5t72.5 184.5q0 106 -71.5 172t-179.5 66h-407h-8l458 596h-537v228h978l-492 -625q139 5 253 -48t181.5 -157.5t67.5 -242.5q0 -201 -144 -342t-355 -141q-202 0 -345.5 130t-143.5 315z" />
<glyph unicode="4" horiz-adv-x="1292" d="M46 323l671 1213h310v-983h143v-230h-143v-323h-246v323h-735zM381 553h400v742z" />
<glyph unicode="5" horiz-adv-x="1295" d="M97 177l23 253h36q158 -218 440 -218q150 0 239 83t89 209q0 129 -85.5 213t-211.5 84q-74 0 -144.5 -31.5t-121.5 -85.5l-200 122l77 725h837v-228h-635l-43 -371q122 97 289 97q212 0 348 -146t136 -368q0 -234 -155.5 -384.5t-405.5 -150.5q-147 0 -289 54.5 t-223 142.5z" />
<glyph unicode="6" horiz-adv-x="1356" d="M125 499q-6 174 126 356l514 681h292l-407 -504q36 7 87 7q92 -7 180.5 -48t158.5 -107t113 -160t45 -199q2 -147 -71 -271t-198.5 -196t-273.5 -76q-230 -6 -396 145.5t-170 371.5zM366 499q6 -134 96 -217.5t229 -79.5q137 6 222.5 97.5t79.5 222.5q-4 138 -95.5 226 t-229.5 84q-137 -6 -221.5 -100t-80.5 -233z" />
<glyph unicode="7" horiz-adv-x="1175" d="M87 1308v228h1042v-174l-745 -1362h-276l734 1308h-755z" />
<glyph unicode="8" horiz-adv-x="1221" d="M95 453q0 131 65 236.5t178 165.5q-73 53 -113.5 132t-40.5 173q0 169 122 282.5t306 113.5q182 0 303.5 -113.5t121.5 -282.5q0 -94 -40.5 -173t-113.5 -132q115 -60 180.5 -165.5t65.5 -236.5q0 -200 -149 -336.5t-371 -136.5q-220 0 -367 136.5t-147 336.5zM340 474 q0 -116 78 -197.5t191 -81.5q115 0 193.5 81.5t78.5 197.5q0 115 -78 191.5t-194 76.5q-114 0 -191.5 -76.5t-77.5 -191.5zM399 1134q0 -90 61.5 -151t151.5 -61q89 0 149.5 61t60.5 151t-60.5 151.5t-149.5 61.5q-90 0 -151.5 -61.5t-61.5 -151.5z" />
<glyph unicode="9" horiz-adv-x="1356" d="M125 1011q-4 147 69 271t198.5 196t275.5 76t279.5 -63.5t207 -188.5t79.5 -265q4 -177 -126 -356l-517 -681h-289l407 504q-36 -7 -87 -7q-92 7 -180.5 48t-158.5 107t-113 160t-45 199zM364 1014q6 -139 97 -226.5t230 -83.5q137 6 221.5 100t80.5 233 q-6 132 -97 216.5t-228 80.5q-139 -6 -224.5 -97t-79.5 -223z" />
<glyph unicode=":" horiz-adv-x="686" d="M197 125q0 58 43.5 101t102.5 43q58 0 102 -43t44 -101q0 -59 -44 -102t-102 -43q-59 0 -102.5 43t-43.5 102zM197 899q0 59 43.5 102t102.5 43q58 0 102 -43t44 -102t-44 -101.5t-102 -42.5q-59 0 -102.5 42.5t-43.5 101.5z" />
<glyph unicode=";" horiz-adv-x="721" d="M56 -338l256 602h249l-336 -602h-169zM220 899q0 59 43.5 102t102.5 43t102.5 -43t43.5 -102t-43.5 -101.5t-102.5 -42.5t-102.5 42.5t-43.5 101.5z" />
<glyph unicode="&#x3c;" horiz-adv-x="1512" d="M192 625v217l1129 566v-200l-942 -476l942 -476v-202z" />
<glyph unicode="=" horiz-adv-x="1487" d="M131 266v156h1228v-156h-1228zM131 663v156h1228v-156h-1228z" />
<glyph unicode="&#x3e;" horiz-adv-x="1512" d="M192 54v202l942 476l-942 476v200l1129 -566v-217z" />
<glyph unicode="?" horiz-adv-x="1280" d="M200 1198q-6 134 53 244t170 173.5t250 63.5q203 0 339.5 -129t136.5 -319q0 -84 -20 -147.5t-52.5 -100.5t-71.5 -65t-78 -48.5t-71.5 -41t-52.5 -52.5t-20 -75v-256h-217v239q0 82 20.5 140t53 89t72.5 53t79.5 41t72 43.5t53 69.5t20.5 111q0 102 -75.5 169t-188.5 67 q-119 0 -192.5 -76.5t-65.5 -192.5h-215zM535 125q0 59 43.5 101.5t102.5 42.5q61 0 103.5 -42t42.5 -102q0 -61 -42 -103t-104 -42q-60 0 -103 42t-43 103z" />
<glyph unicode="@" horiz-adv-x="1277" d="M131 566q0 153 71.5 281t195.5 202.5t273 74.5q175 0 294.5 -108t119.5 -266v-445h-145v56q-36 -36 -88.5 -57.5t-101.5 -21.5q-106 0 -181 74.5t-75 183.5q0 107 75 181.5t179 74.5q52 0 104.5 -22.5t87.5 -59.5v36q0 94 -78 161t-191 67q-165 0 -281 -120.5 t-116 -291.5q0 -178 127.5 -300.5t312.5 -122.5h371v-143h-371q-161 0 -295 75t-211 205t-77 286zM660 540q0 -58 42 -97t104 -39q44 0 80.5 21.5t53.5 58.5v112q-17 35 -53.5 56t-80.5 21q-62 0 -104 -38t-42 -95z" />
<glyph unicode="A" horiz-adv-x="1354" d="M-18 0l556 1536h279l555 -1536h-271l-110 325h-627l-111 -325h-271zM438 545h481l-241 717z" />
<glyph unicode="B" horiz-adv-x="1364" d="M169 0v1536h604q189 0 316 -115.5t127 -301.5q0 -120 -54 -207t-151 -134q118 -44 187 -137.5t69 -228.5q0 -123 -59 -218t-158 -144.5t-221 -49.5h-660zM417 233h377q93 0 157.5 60.5t64.5 149.5q0 90 -65 152.5t-157 62.5h-377v-425zM417 878h328q90 0 155 62.5 t65 152.5q0 91 -64 150.5t-156 59.5h-328v-425z" />
<glyph unicode="C" horiz-adv-x="1664" d="M110 768q0 160 62.5 306t168.5 251.5t252 168t306 62.5q221 0 405 -112t286 -300l-215 -115q-68 128 -195 203.5t-281 75.5q-149 0 -273 -71t-196 -195t-72 -274t72 -274t196 -195t273 -71q154 0 281 75.5t195 203.5l215 -115q-102 -188 -286 -300t-405 -112 q-160 0 -306 62.5t-252 168t-168.5 251.5t-62.5 306z" />
<glyph unicode="D" horiz-adv-x="1507" d="M169 0v1536h461q157 0 299 -60.5t245 -163.5t163.5 -245t60.5 -299t-60.5 -299t-163.5 -245t-245 -163.5t-299 -60.5h-461zM417 233h213q220 0 369.5 153t149.5 382t-149.5 382t-369.5 153h-213v-1070z" />
<glyph unicode="E" horiz-adv-x="1192" d="M182 0v1536h880v-228h-629v-425h545v-230h-545v-425h629v-228h-880z" />
<glyph unicode="F" horiz-adv-x="1095" d="M182 0v1536h880v-228h-629v-425h545v-230h-545v-653h-251z" />
<glyph unicode="G" horiz-adv-x="1804" d="M115 768q0 160 62 306t167.5 251.5t252 168t307.5 62.5q220 0 405 -112.5t286 -299.5l-215 -115q-70 128 -196.5 203.5t-279.5 75.5q-229 0 -386 -156t-157 -384t157 -384t386 -156q187 0 330 109t189 283h-522v209h791v-61q0 -160 -62.5 -306t-168 -251.5t-251.5 -168 t-306 -62.5q-161 0 -307.5 62.5t-252 168t-167.5 251.5t-62 306z" />
<glyph unicode="H" horiz-adv-x="1574" d="M169 0v1536h251v-650h735v650h250v-1536h-250v653h-735v-653h-251z" />
<glyph unicode="I" horiz-adv-x="611" d="M182 0v1536h251v-1536h-251z" />
<glyph unicode="J" horiz-adv-x="1082" d="M74 317l251 67q7 -78 58 -126t124 -48q82 0 134.5 56.5t52.5 145.5v891h-520v233h771v-1155q0 -187 -116.5 -294t-321.5 -107q-185 0 -298.5 89.5t-134.5 247.5z" />
<glyph unicode="K" horiz-adv-x="1410" d="M169 0v1536h251v-586h87l558 586h330l-681 -696l732 -840h-340l-604 724h-82v-724h-251z" />
<glyph unicode="L" horiz-adv-x="972" d="M169 0v1536h251v-1303h540v-233h-791z" />
<glyph unicode="M" horiz-adv-x="1950" d="M169 0v1536h269l537 -1203l541 1203h266v-1536h-249v1060l-476 -1060h-166l-471 1057v-1057h-251z" />
<glyph unicode="N" horiz-adv-x="1689" d="M169 0v1536h251l852 -1139v1139h249v-1536h-251l-850 1142v-1142h-251z" />
<glyph unicode="O" horiz-adv-x="1797" d="M110 768q0 160 62.5 306t168.5 251.5t252 168t306 62.5t306 -62.5t251.5 -168t168 -251.5t62.5 -306t-62.5 -306t-168 -251.5t-251.5 -168t-306 -62.5t-306 62.5t-252 168t-168.5 251.5t-62.5 306zM358 768q0 -150 72 -274t196 -195t273 -71q150 0 274 71t195 195t71 274 t-71 274t-195 195t-274 71q-149 0 -273 -71t-196 -195t-72 -274z" />
<glyph unicode="P" d="M169 0v1536h602q185 0 313.5 -130t128.5 -315q0 -186 -128 -312t-314 -126h-351v-653h-251zM420 870h315q102 0 167.5 59t65.5 159q0 98 -66 159t-167 61h-315v-438z" />
<glyph unicode="Q" horiz-adv-x="1804" d="M110 768q0 160 62.5 306t168.5 251.5t252 168t306 62.5t306 -62.5t251.5 -168t168 -251.5t62.5 -306q0 -198 -91.5 -369t-248.5 -279l212 80h189v-200h-670q-86 -20 -179 -20q-160 0 -306 62.5t-252 168t-168.5 251.5t-62.5 306zM358 768q0 -150 72 -274t196 -195 t273 -71q150 0 274 71t195 195t71 274t-71 274t-195 195t-274 71q-149 0 -273 -71t-196 -195t-72 -274z" />
<glyph unicode="R" horiz-adv-x="1326" d="M169 0v1536h602q122 0 223.5 -60t160 -163.5t58.5 -227.5q0 -154 -93.5 -270t-238.5 -147l440 -668h-282l-407 645h-212v-645h-251zM420 863h320q99 0 163.5 61.5t64.5 158.5t-64.5 158.5t-163.5 61.5h-320v-440z" />
<glyph unicode="S" horiz-adv-x="1162" d="M56 307l215 131q41 -100 127 -159t201 -59q109 0 178.5 54t69.5 146q0 52 -25 93t-67 69.5t-96.5 52.5t-114.5 47t-120.5 48.5t-115 61t-96.5 80t-67 110.5t-25 147q0 100 37.5 182.5t101.5 135t146.5 81t173.5 28.5q133 0 249 -55.5t191 -148.5l-177 -162 q-106 134 -263 134q-90 0 -149 -45.5t-59 -131.5q0 -50 25 -89.5t67 -67t96.5 -51t114.5 -46.5t120.5 -49t115 -63.5t96.5 -85t67 -118t25 -157.5q0 -134 -68.5 -235.5t-181.5 -153t-252 -51.5q-181 0 -326 90t-214 237z" />
<glyph unicode="T" horiz-adv-x="1072" d="M5 1303v233h1063v-233h-408v-1303h-248v1303h-407z" />
<glyph unicode="U" horiz-adv-x="1538" d="M161 499v1037h251v-993q0 -142 101.5 -236.5t254.5 -94.5q154 0 256 94.5t102 236.5v993h251v-1037q0 -146 -79 -265t-218.5 -186.5t-311.5 -67.5t-311 67.5t-217.5 186t-78.5 265.5z" />
<glyph unicode="V" horiz-adv-x="1354" d="M-18 1536h279l417 -1219l415 1219h279l-555 -1536h-279z" />
<glyph unicode="W" horiz-adv-x="2081" d="M-28 1536h266l333 -1157l328 1157h225h59l330 -1162l335 1162h261l-448 -1536h-281l-341 1229l-335 -1229h-279z" />
<glyph unicode="X" horiz-adv-x="1295" d="M-15 0l527 783l-504 753h292l348 -545l350 545h290l-505 -750l528 -786h-295l-368 579l-369 -579h-294z" />
<glyph unicode="Y" horiz-adv-x="1292" d="M-15 1536h294l369 -579l371 579h289l-535 -809v-727h-251v722z" />
<glyph unicode="Z" horiz-adv-x="1331" d="M77 0l742 1303h-678v233h1090l-739 -1303h755v-233h-1170z" />
<glyph unicode="[" horiz-adv-x="742" d="M169 -512v2360h476v-151h-266v-2055h266v-154h-476z" />
<glyph unicode="\" horiz-adv-x="1415" d="M-41 1823h230l1268 -2437h-228z" />
<glyph unicode="]" horiz-adv-x="742" d="M100 -358h264v2055h-264v151h473v-2360h-473v154z" />
<glyph unicode="^" horiz-adv-x="1495" d="M69 404l568 1132h218l568 -1132h-202l-473 943l-477 -943h-202z" />
<glyph unicode="_" horiz-adv-x="1405" d="M90 0h1228v-192h-1228v192z" />
<glyph unicode="`" horiz-adv-x="163" d="M46 1536h248l226 -381h-159z" />
<glyph unicode="a" d="M125 271q0 135 91.5 215t246.5 80h372v74q0 93 -65.5 146.5t-167.5 53.5q-103 0 -168 -51t-65 -141h-244q0 178 134.5 287t342.5 109q206 0 341 -116t135 -303v-295q0 -64 23.5 -97t58.5 -33h61v-200q-43 -20 -89 -20q-91 0 -157.5 42t-104.5 119q-58 -76 -158 -118.5 t-223 -42.5q-167 0 -265.5 78.5t-98.5 212.5zM379 279q0 -54 46 -86t125 -32q107 0 184.5 57.5t100.5 155.5v23h-300q-71 0 -113.5 -32t-42.5 -86z" />
<glyph unicode="b" horiz-adv-x="1359" d="M169 0v1823h243v-907q141 128 330 128q107 0 203 -41.5t165.5 -112.5t110.5 -170t41 -208t-41 -208t-110.5 -170t-165.5 -112.5t-203 -41.5q-189 0 -330 128v-108h-243zM404 512q0 -129 89.5 -218t218.5 -89t218 89t89 218t-89 218t-218 89t-218.5 -89t-89.5 -218z" />
<glyph unicode="c" d="M97 512q0 148 71 270t197.5 192t282.5 70q201 0 345 -111t187 -290h-253q-37 80 -112 128t-167 48q-129 0 -218.5 -88.5t-89.5 -218.5t89.5 -218.5t218.5 -88.5q92 0 167 48t112 128h253q-43 -179 -187 -290t-345 -111q-156 0 -282.5 70t-197.5 192t-71 270z" />
<glyph unicode="d" horiz-adv-x="1359" d="M97 512q0 109 41 208t110.5 170t165.5 112.5t203 41.5q189 0 330 -128v907h243v-1823h-243v108q-141 -128 -330 -128q-107 0 -203 41.5t-165.5 112.5t-110.5 170t-41 208zM340 512q0 -129 89.5 -218t218.5 -89q127 0 217 89.5t90 217.5t-90 217.5t-217 89.5 q-129 0 -218.5 -89t-89.5 -218z" />
<glyph unicode="e" horiz-adv-x="1290" d="M97 512q0 151 72 273t198.5 190.5t282.5 68.5q234 0 389 -148.5t159 -378.5l-2 -43h-848q10 -130 93 -211t212 -81q99 0 175 47.5t109 128.5h243q-47 -170 -188 -274t-339 -104q-157 0 -284 68.5t-199.5 190.5t-72.5 273zM369 648h563q-35 90 -107 141t-172 51 q-101 0 -175.5 -52t-108.5 -140z" />
<glyph unicode="f" horiz-adv-x="734" d="M51 819v205h172v463q0 139 102.5 237.5t245.5 98.5q103 0 148 -31v-189h-120q-57 0 -95 -40t-38 -106v-433h258v-205h-258v-819h-243v819h-172z" />
<glyph unicode="g" horiz-adv-x="1372" d="M110 512q0 146 68.5 268.5t188 193t263.5 70.5q192 0 325 -122v102h246v-1078q0 -250 -157 -408t-407 -158q-185 0 -324.5 93.5t-197.5 252.5l223 92q31 -97 112 -156t187 -59q138 0 229 95t91 241v166q-138 -125 -327 -125q-144 0 -263.5 70.5t-188 193t-68.5 268.5z M351 512q0 -129 89 -218t218 -89t219.5 89t90.5 218t-90.5 218t-219.5 89t-218 -89t-89 -218z" />
<glyph unicode="h" horiz-adv-x="1195" d="M169 0v1823h243v-873q110 94 251 94q160 0 270.5 -113.5t110.5 -280.5v-650h-243v627q0 81 -55.5 136.5t-136.5 55.5q-82 0 -139.5 -59.5t-57.5 -142.5v-617h-243z" />
<glyph unicode="i" horiz-adv-x="604" d="M156 1349q0 61 43 103.5t103 42.5t103 -42.5t43 -103.5q0 -58 -43.5 -100.5t-102.5 -42.5t-102.5 42.5t-43.5 100.5zM182 0v1024h240v-1024h-240z" />
<glyph unicode="j" horiz-adv-x="604" d="M-74 -394h120q57 0 96.5 40t39.5 106v1272h240v-1300q0 -141 -102 -239.5t-243 -98.5q-100 0 -151 33v187zM156 1349q0 61 43 103.5t103 42.5t103 -42.5t43 -103.5q0 -58 -43.5 -100.5t-102.5 -42.5t-102.5 42.5t-43.5 100.5z" />
<glyph unicode="k" horiz-adv-x="1141" d="M184 0v1823h241v-1209l412 410h302l-461 -461l502 -563h-320l-435 525v-525h-241z" />
<glyph unicode="l" horiz-adv-x="581" d="M169 0v1823h243v-1823h-243z" />
<glyph unicode="m" horiz-adv-x="1781" d="M169 0v1024h243v-105q104 125 254 125q85 0 160 -43.5t126 -117.5q51 76 131.5 118.5t178.5 42.5q162 0 265.5 -112t103.5 -282v-650h-243v625q0 81 -53.5 137.5t-131.5 56.5q-80 0 -131 -58t-51 -136v-625h-243v625q0 81 -53 137.5t-131 56.5q-80 0 -131 -58t-51 -136 v-625h-243z" />
<glyph unicode="n" horiz-adv-x="1200" d="M169 0v1024h243v-100q112 120 272 120q152 0 259 -110.5t107 -275.5v-658h-241v625q0 83 -56 138.5t-141 55.5t-142.5 -56t-57.5 -138v-625h-243z" />
<glyph unicode="o" horiz-adv-x="1295" d="M97 512q0 148 71 270t197.5 192t282.5 70t282 -70t197 -192t71 -270t-71 -270t-197 -192t-282 -70t-282.5 70t-197.5 192t-71 270zM340 512q0 -129 89 -218t219 -89q129 0 218 89t89 218t-89 218t-218 89q-130 0 -219 -89t-89 -218z" />
<glyph unicode="p" horiz-adv-x="1359" d="M169 -614v1638h243v-108q141 128 330 128q107 0 203 -41.5t165.5 -112.5t110.5 -170t41 -208t-41 -208t-110.5 -170t-165.5 -112.5t-203 -41.5q-189 0 -330 128v-722h-243zM404 512q0 -129 89.5 -218t218.5 -89t218 89t89 218t-89 218t-218 89t-218.5 -89t-89.5 -218z " />
<glyph unicode="q" horiz-adv-x="1359" d="M97 512q0 109 41 208t110.5 170t165.5 112.5t203 41.5q189 0 330 -128v108h243v-1272q0 -66 38.5 -106t97.5 -40h95v-200q-51 -20 -126 -20q-142 0 -245 99t-103 239v384q-141 -128 -330 -128q-107 0 -203 41.5t-165.5 112.5t-110.5 170t-41 208zM340 512 q0 -129 89.5 -218t218.5 -89q127 0 217 89.5t90 217.5t-90 217.5t-217 89.5q-129 0 -218.5 -89t-89.5 -218z" />
<glyph unicode="r" horiz-adv-x="811" d="M169 0v1024h243v-141q55 76 136 118.5t179 42.5q46 0 82 -7v-223q-43 5 -87 5q-134 0 -222 -83t-88 -216v-520h-243z" />
<glyph unicode="s" horiz-adv-x="878" d="M67 215l197 90q22 -56 74.5 -86t112.5 -30q56 0 92 26.5t36 73.5q0 42 -34.5 68.5t-122.5 62.5q-67 24 -114 48t-94 61t-71.5 89t-24.5 117q0 134 95.5 221.5t239.5 87.5q101 0 191.5 -44.5t131.5 -111.5l-154 -125q-21 35 -62.5 56t-91.5 21q-52 0 -81 -24t-29 -68 t31 -67.5t118 -58.5q51 -21 85.5 -37.5t79.5 -46t71.5 -61t46 -79.5t19.5 -104q0 -138 -98.5 -226t-252.5 -88q-131 0 -243 65.5t-148 169.5z" />
<glyph unicode="t" horiz-adv-x="778" d="M41 819v205h169v420h243v-420h259v-205h-259v-473q0 -66 38.5 -106t97.5 -40h118v-187q-20 -14 -62.5 -23.5t-86.5 -9.5q-142 0 -245 98.5t-103 238.5v502h-169z" />
<glyph unicode="u" horiz-adv-x="1141" d="M141 379v645h240v-614q0 -93 53 -149t137 -56q83 0 136 56t53 149v614h241v-645q0 -185 -114.5 -292t-315.5 -107t-315.5 107t-114.5 292z" />
<glyph unicode="v" horiz-adv-x="1062" d="M5 1024h259l266 -760l269 760h258l-412 -1024h-230z" />
<glyph unicode="w" horiz-adv-x="1697" d="M5 1024h274l220 -755l249 755h204l249 -760l220 760h269l-349 -1024h-261l-230 694l-233 -694h-259z" />
<glyph unicode="x" horiz-adv-x="1159" d="M5 0l430 512l-430 512h289l287 -340l284 340h290l-431 -512l431 -512h-292l-282 338l-284 -338h-292z" />
<glyph unicode="y" horiz-adv-x="1103" d="M5 1024h259l292 -758l281 758h261l-658 -1638h-256l244 596z" />
<glyph unicode="z" horiz-adv-x="1026" d="M69 0l507 809h-461v215h853l-510 -809h499v-215h-888z" />
<glyph unicode="{" horiz-adv-x="693" d="M110 548v148q97 47 125.5 109t28.5 214v512q0 127 66.5 213t166.5 86h120v-156q-104 0 -136.5 -25t-32.5 -121v-540q0 -130 -26.5 -217.5t-98.5 -148.5q72 -61 98.5 -148.5t26.5 -217.5v-550q0 -78 33.5 -107t135.5 -29v-156h-120q-100 0 -166.5 86t-66.5 213v512 q0 156 -28.5 217t-125.5 106z" />
<glyph unicode="|" horiz-adv-x="634" d="M241 -307v1843h153v-1843h-153z" />
<glyph unicode="}" horiz-adv-x="693" d="M77 -430q100 0 133 29t33 107v550q0 129 28 216.5t100 149.5q-72 62 -100 149.5t-28 216.5v540q0 50 -7 79t-28.5 44t-49.5 19t-81 4v156h120q100 0 166.5 -86t66.5 -213v-512q0 -152 28.5 -214t125.5 -109v-148q-97 -45 -125.5 -106t-28.5 -217v-512q0 -127 -66.5 -213 t-166.5 -86h-120v156z" />
<glyph unicode="~" horiz-adv-x="1205" d="M90 353q-10 166 78.5 271.5t241.5 105.5q84 0 142.5 -36t118.5 -113q30 -40 59 -61t71 -21q65 0 108.5 57t37.5 148h167q13 -157 -73 -264t-224 -107q-50 0 -94 13.5t-79.5 39t-56.5 45.5t-47 47q-2 3 -3.5 4t-3.5 3t-3 4q-65 72 -123 72q-70 0 -110 -61t-38 -147h-169z " />
<glyph unicode="&#xa1;" horiz-adv-x="673" d="M192 878q0 60 42 103t101 43t102.5 -43.5t43.5 -102.5t-43 -101t-103 -42q-59 0 -101 42t-42 101zM215 -614l28 1154h185l28 -1154h-241z" />
<glyph unicode="&#xa2;" horiz-adv-x="1070" d="M110 717q0 192 124 336t316 183v200h144v-187q120 -4 225 -59v-235q-94 82 -248 82q-133 0 -226.5 -93t-93.5 -227t93.5 -227t226.5 -93q157 0 248 84v-238q-105 -55 -225 -59v-187h-144v200q-192 39 -316 183.5t-124 336.5z" />
<glyph unicode="&#xa3;" horiz-adv-x="1303" d="M79 668v161h164v236q0 215 135 353t346 138q157 0 290 -101.5t169 -253.5l-177 -77q-11 104 -94.5 176t-187.5 72q-134 0 -215 -84.5t-81 -222.5v-236h381v-161h-381v-496h778v-172h-963v668h-164z" />
<glyph unicode="&#xa4;" horiz-adv-x="1313" d="M156 376l108 105q-82 118 -81.5 262.5t81.5 260.5l-105 104l128 136l107 -110q117 82 262.5 83t262.5 -80l105 105l133 -131l-107 -105q81 -117 81 -262.5t-81 -262.5l105 -105l-128 -135l-108 110q-117 -83 -262.5 -83t-264.5 83l-108 -110zM365 741.5 q-1 -120.5 83 -203.5q87 -85 207.5 -85.5t207.5 85.5q85 85 84 206t-87 206q-85 83 -204.5 82.5t-204.5 -85.5t-86 -205.5z" />
<glyph unicode="&#xa5;" horiz-adv-x="1438" d="M90 1536h225l402 -627l404 627h226l-518 -783h382v-151h-387v-180h387v-146h-387v-276h-212v276h-384v146h384v180h-384v151h379z" />
<glyph unicode="&#xa6;" horiz-adv-x="634" d="M241 -307v737h153v-737h-153zM241 799v737h153v-737h-153z" />
<glyph unicode="&#xa7;" horiz-adv-x="1320" d="M141 246l153 92q40 -74 141 -120t243 -46q138 0 233 44.5t95 123.5q0 50 -44 85.5t-114 58t-155 42.5t-170 46t-155 61t-114 95.5t-44 141.5q0 108 82 187q-82 71 -82 179q0 76 38.5 138t103 101t144.5 60t167 21q128 0 244 -41.5t186 -111.5l-123 -100q-51 45 -128.5 71 t-168.5 26q-116 0 -200 -42t-84 -114q0 -50 44 -85.5t114 -57.5t155 -42t170 -46.5t155 -62t114 -97t44 -144.5q0 -103 -79 -187q79 -74 79 -184q0 -96 -71.5 -173t-188.5 -118.5t-254 -41.5q-177 0 -322 67.5t-208 173.5zM389 878q0 -46 34.5 -79.5t98 -57t130.5 -40.5 t155 -41t148 -48q51 43 51 100q0 44 -34.5 77t-98 55.5t-130.5 39t-155 40t-148 46.5q-51 -40 -51 -92z" />
<glyph unicode="&#xa8;" horiz-adv-x="192" d="M133 1341q0 55 39.5 94.5t93.5 39.5q56 0 96 -39.5t40 -94.5q0 -54 -40.5 -93.5t-95.5 -39.5q-54 0 -93.5 39.5t-39.5 93.5zM535 1341q0 55 39.5 94.5t93.5 39.5q55 0 94 -39t39 -95q0 -54 -39 -93.5t-94 -39.5q-54 0 -93.5 39.5t-39.5 93.5z" />
<glyph unicode="&#xa9;" horiz-adv-x="1797" d="M110 768q0 160 62.5 306t168.5 251.5t252 168t306 62.5t306 -62.5t251.5 -168t168 -251.5t62.5 -306t-62.5 -306t-168 -251.5t-251.5 -168t-306 -62.5t-306 62.5t-252 168t-168.5 251.5t-62.5 306zM243 768q0 -180 87 -330.5t238 -237.5t331 -87t330.5 87t237.5 237.5 t87 330.5t-87 330.5t-237.5 237.5t-330.5 87t-331 -87t-238 -237.5t-87 -330.5zM494 765q0 172 118.5 288.5t296.5 116.5q150 0 258 -84.5t139 -220.5h-190q-27 60 -83 96.5t-124 36.5q-98 0 -164.5 -66.5t-66.5 -166.5t66.5 -166.5t164.5 -66.5q68 0 124 37t83 97h190 q-31 -136 -139 -220.5t-258 -84.5q-178 0 -296.5 116t-118.5 288z" />
<glyph unicode="&#xaa;" horiz-adv-x="857" d="M72 1229q0 133 90 226.5t217 93.5q75 0 137 -34t101 -94v115h123v-614h-123v112q-39 -59 -101 -92t-137 -33q-127 0 -217 93t-90 227zM192 1229q0 -88 62 -151.5t148 -63.5q90 0 152.5 63t62.5 152q0 87 -63 149.5t-152 62.5q-86 0 -148 -63t-62 -149z" />
<glyph unicode="&#xab;" horiz-adv-x="1405" d="M233 571l312 376h197l-312 -376l312 -376h-197zM663 571l312 376h200l-312 -376l312 -376h-200z" />
<glyph unicode="&#xac;" horiz-adv-x="1656" d="M192 740v166h1275v-688h-164v522h-1111z" />
<glyph unicode="&#xad;" horiz-adv-x="1021" d="M123 435v195h717v-195h-717z" />
<glyph unicode="&#xae;" horiz-adv-x="1797" d="M110 768q0 160 62.5 306t168.5 251.5t252 168t306 62.5t306 -62.5t251.5 -168t168 -251.5t62.5 -306t-62.5 -306t-168 -251.5t-251.5 -168t-306 -62.5t-306 62.5t-252 168t-168.5 251.5t-62.5 306zM243 768q0 -180 87 -330.5t238 -237.5t331 -87t330.5 87t237.5 237.5 t87 330.5t-87 330.5t-237.5 237.5t-330.5 87t-331 -87t-238 -237.5t-87 -330.5zM686 371v794h264q100 0 169 -67.5t69 -165.5q0 -74 -40 -132t-106 -83l187 -346h-138l-182 328h-103v-328h-120zM806 819h144q46 0 79 32.5t33 80.5q0 46 -32 78t-80 32h-144v-223z" />
<glyph unicode="&#xaf;" horiz-adv-x="135" d="M95 1211v159h583v-159h-583z" />
<glyph unicode="&#xb0;" horiz-adv-x="1013" d="M233 1283q0 114 79.5 193.5t194.5 79.5q113 0 193.5 -80t80.5 -193q0 -115 -80 -194.5t-194 -79.5q-115 0 -194.5 79.5t-79.5 194.5zM353 1283q0 -65 44.5 -109.5t109.5 -44.5t109 44.5t44 109.5t-44 109t-109 44t-109.5 -44t-44.5 -109z" />
<glyph unicode="&#xb1;" horiz-adv-x="1646" d="M110 0v159h1426v-159h-1426zM110 745v177h625v368h176v-368h625v-177h-625v-369h-176v369h-625z" />
<glyph unicode="&#xb2;" horiz-adv-x="770" d="M97 806l300 356q63 74 81.5 107t18.5 67q0 55 -32 82.5t-78 27.5q-47 2 -79.5 -30t-28.5 -85h-120q-6 100 63.5 164t171.5 64q94 -2 157.5 -59t65.5 -148q0 -63 -27 -113t-109 -148l-148 -175h302v-110h-538z" />
<glyph unicode="&#xb3;" horiz-adv-x="752" d="M136 998h120q0 -42 35 -72t83 -30q51 0 85.5 36.5t34.5 88.5q0 51 -34 83.5t-86 32.5h-195h-5l220 286h-258v110h471l-236 -299q104 2 172.5 -58t68.5 -160q0 -97 -69 -165t-172 -68q-97 0 -166 62.5t-69 152.5z" />
<glyph unicode="&#xb4;" horiz-adv-x="163" d="M49 1155l225 381h248l-315 -381h-158z" />
<glyph unicode="&#xb5;" horiz-adv-x="1249" d="M172 -512v1536h220v-609q0 -100 70 -170.5t170 -70.5q106 0 180 70.5t74 170.5v609h220v-1024h-220v136q-59 -73 -141 -114.5t-174 -41.5q-132 0 -236 76v-568h-163z" />
<glyph unicode="&#xb6;" horiz-adv-x="1323" d="M212 1193q0 166 96.5 254.5t267.5 88.5h177v-1843h-128v1157h-49q-171 0 -267.5 89t-96.5 254zM945 -307v1843h125v-1843h-125z" />
<glyph unicode="&#xb7;" horiz-adv-x="604" d="M192 737q0 44 33 77t77 33q43 0 76.5 -33t33.5 -77q0 -47 -33.5 -78.5t-76.5 -31.5q-45 0 -77.5 31.5t-32.5 78.5z" />
<glyph unicode="&#xb8;" horiz-adv-x="128" d="M69 -387l115 41q17 -27 53.5 -45.5t69.5 -18.5q40 0 67.5 28.5t27.5 69.5q0 62 -52 82t-127 -13l-98 59l100 184h123l-66 -128q102 19 172.5 -34.5t70.5 -149.5q0 -92 -63 -156t-155 -64q-75 0 -144 42t-94 103z" />
<glyph unicode="&#xb9;" horiz-adv-x="560" d="M82 1431v105h233v-768h-120v663h-113z" />
<glyph unicode="&#xba;" horiz-adv-x="808" d="M72 1229q0 133 96.5 226.5t233.5 93.5q140 0 239 -93.5t99 -226.5q0 -134 -98.5 -227t-239.5 -93q-137 0 -233.5 93t-96.5 227zM192 1229q0 -88 62 -151.5t148 -63.5q90 0 152.5 63t62.5 152q0 87 -63 149.5t-152 62.5q-86 0 -148 -63t-62 -149z" />
<glyph unicode="&#xbb;" horiz-adv-x="1405" d="M233 195l310 376l-310 376h195l312 -376l-312 -376h-195zM660 195l313 376l-313 376h200l312 -376l-312 -376h-200z" />
<glyph unicode="&#xbc;" horiz-adv-x="2145" d="M79 1385v151h328v-1024h-164v873h-164zM343 -5l1070 1536h190l-1071 -1536h-189zM1272 215l448 809h205v-655h97v-154h-97v-215h-164v215h-489zM1495 369h266v496z" />
<glyph unicode="&#xbd;" horiz-adv-x="2137" d="M79 1385v151h328v-1024h-164v873h-164zM315 -3l1070 1536h189l-1070 -1536h-189zM1293 -3l415 492q88 101 114 148t26 95q0 76 -43.5 113.5t-107.5 37.5q-68 2 -112.5 -42.5t-38.5 -118.5h-166q-7 138 88.5 226.5t236.5 88.5q131 0 218.5 -79.5t91.5 -207.5 q0 -87 -37.5 -155t-152.5 -203l-205 -244h420v-151h-747z" />
<glyph unicode="&#xbe;" horiz-adv-x="2191" d="M123 801h166q0 -59 48 -100t114 -41q72 0 120.5 49.5t48.5 122.5q0 71 -48 115t-119 44h-271h-5l304 399h-358v151h653l-331 -417q144 8 240 -74.5t96 -222.5q0 -135 -96 -229t-237 -94q-135 0 -230 86.5t-95 210.5zM463 -5l1070 1536h190l-1070 -1536h-190zM1321 215 l448 809h205v-655h97v-154h-97v-215h-164v215h-489zM1544 369h266v496z" />
<glyph unicode="&#xbf;" horiz-adv-x="1292" d="M131 -128q0 84 20 147.5t52.5 100.5t71.5 65t78 48.5t71.5 41t52.5 52.5t20 75v189h217v-171q0 -82 -20.5 -140t-53 -89.5t-72 -53.5t-79.5 -41.5t-72.5 -44t-53 -69.5t-20.5 -110q0 -102 75.5 -170t188.5 -68q117 0 190.5 77.5t67.5 193.5h215q10 -205 -125.5 -343 t-347.5 -138q-203 0 -339.5 128t-136.5 320zM453 914q0 61 41.5 102t101.5 41t103 -41t43 -102q0 -59 -43 -101t-103 -42q-59 0 -101 42t-42 101z" />
<glyph unicode="&#xc0;" horiz-adv-x="1354" d="M-18 0l556 1536h279l555 -1536h-271l-110 325h-627l-111 -325h-271zM300 2048h248l225 -381h-159zM438 545h481l-241 717z" />
<glyph unicode="&#xc1;" horiz-adv-x="1354" d="M-18 0l556 1536h279l555 -1536h-271l-110 325h-627l-111 -325h-271zM438 545h481l-241 717zM584 1667l225 381h248l-315 -381h-158z" />
<glyph unicode="&#xc2;" horiz-adv-x="1354" d="M-18 0l556 1536h279l555 -1536h-271l-110 325h-627l-111 -325h-271zM361 1667l225 381h185l225 -381h-164l-154 238l-151 -238h-166zM438 545h481l-241 717z" />
<glyph unicode="&#xc3;" horiz-adv-x="1354" d="M-18 0l556 1536h279l555 -1536h-271l-110 325h-627l-111 -325h-271zM310 1695q0 133 63 217.5t170 84.5q114 0 197 -115q30 -46 66 -46q80 0 80 151h156q0 -133 -61 -218t-172 -85q-117 0 -197 116q-28 46 -64 46q-40 0 -61 -42t-21 -109h-156zM438 545h481l-241 717z " />
<glyph unicode="&#xc4;" horiz-adv-x="1354" d="M-18 0l556 1536h279l555 -1536h-271l-110 325h-627l-111 -325h-271zM343 1853q0 55 39.5 94.5t93.5 39.5q56 0 96 -39.5t40 -94.5q0 -54 -40.5 -93.5t-95.5 -39.5q-54 0 -93.5 39.5t-39.5 93.5zM438 545h481l-241 717zM745 1853q0 55 39.5 94.5t93.5 39.5q55 0 94 -39 t39 -95q0 -54 -39 -93.5t-94 -39.5q-54 0 -93.5 39.5t-39.5 93.5z" />
<glyph unicode="&#xc5;" horiz-adv-x="1354" d="M-18 0l540 1495q-69 69 -69 164q0 96 68.5 163t164.5 67q94 0 161 -67t67 -163q0 -103 -79 -174l537 -1485h-271l-110 325h-627l-111 -325h-271zM438 545h481l-241 717zM568 1659q0 -52 34 -86t84 -34q51 0 85.5 34.5t34.5 85.5t-35 87t-85 36t-84 -36t-34 -87z" />
<glyph unicode="&#xc6;" horiz-adv-x="1884" d="M-18 0l617 1536h1155v-228h-638v-432h551v-216h-551v-432h638v-228h-881v343h-476l-133 -343h-282zM479 556h394v768h-100z" />
<glyph unicode="&#xc7;" horiz-adv-x="1664" d="M110 768q0 160 62.5 306t168.5 251.5t252 168t306 62.5q221 0 405 -112t286 -300l-215 -115q-68 128 -195 203.5t-281 75.5q-149 0 -273 -71t-196 -195t-72 -274t72 -274t196 -195t273 -71q154 0 281 75.5t195 203.5l215 -115q-95 -176 -264.5 -286.5t-375.5 -123.5 l-57 -110q102 19 173 -34.5t71 -149.5q0 -92 -63 -156t-155 -64q-75 0 -144 42t-94 103l115 41q17 -27 53.5 -45.5t69.5 -18.5q40 0 67.5 28.5t27.5 69.5q0 62 -52 82t-127 -13l-98 59l90 166q-199 18 -363 126.5t-259 282.5t-95 377z" />
<glyph unicode="&#xc8;" horiz-adv-x="1192" d="M182 0v1536h880v-228h-629v-425h545v-230h-545v-425h629v-228h-880zM243 2048h249l225 -381h-159z" />
<glyph unicode="&#xc9;" horiz-adv-x="1192" d="M182 0v1536h880v-228h-629v-425h545v-230h-545v-425h629v-228h-880zM527 1667l226 381h248l-315 -381h-159z" />
<glyph unicode="&#xca;" horiz-adv-x="1192" d="M182 0v1536h880v-228h-629v-425h545v-230h-545v-425h629v-228h-880zM305 1667l225 381h184l226 -381h-164l-154 238l-151 -238h-166z" />
<glyph unicode="&#xcb;" horiz-adv-x="1192" d="M182 0v1536h880v-228h-629v-425h545v-230h-545v-425h629v-228h-880zM287 1853q0 55 39.5 94.5t93.5 39.5q56 0 96 -39.5t40 -94.5q0 -54 -40.5 -93.5t-95.5 -39.5q-54 0 -93.5 39.5t-39.5 93.5zM689 1853q0 55 39.5 94.5t93.5 39.5q55 0 94 -39t39 -95q0 -54 -39 -93.5 t-94 -39.5q-54 0 -93.5 39.5t-39.5 93.5z" />
<glyph unicode="&#xcc;" horiz-adv-x="611" d="M-74 2048h248l225 -381h-158zM182 0v1536h251v-1536h-251z" />
<glyph unicode="&#xcd;" horiz-adv-x="611" d="M182 0v1536h251v-1536h-251zM210 1667l225 381h249l-315 -381h-159z" />
<glyph unicode="&#xce;" horiz-adv-x="611" d="M-13 1667l225 381h185l225 -381h-164l-153 238l-151 -238h-167zM182 0v1536h251v-1536h-251z" />
<glyph unicode="&#xcf;" horiz-adv-x="611" d="M-31 1853q0 55 39.5 94.5t93.5 39.5q56 0 96 -39.5t40 -94.5q0 -54 -40.5 -93.5t-95.5 -39.5q-54 0 -93.5 39.5t-39.5 93.5zM182 0v1536h251v-1536h-251zM371 1853q0 55 39.5 94.5t93.5 39.5q55 0 94 -39t39 -95q0 -54 -39 -93.5t-94 -39.5q-54 0 -93.5 39.5t-39.5 93.5z " />
<glyph unicode="&#xd0;" horiz-adv-x="1507" d="M18 684v168h151v684h461q157 0 299 -60.5t245 -163.5t163.5 -245t60.5 -299t-60.5 -299t-163.5 -245t-245 -163.5t-299 -60.5h-461v684h-151zM417 233h213q220 0 369.5 153t149.5 382t-149.5 382t-369.5 153h-213v-451h254v-168h-254v-451z" />
<glyph unicode="&#xd1;" horiz-adv-x="1689" d="M169 0v1536h251l852 -1139v1139h249v-1536h-251l-850 1142v-1142h-251zM476 1695q0 133 63 217.5t170 84.5q114 0 197 -115q30 -46 67 -46q79 0 79 151h156q0 -133 -61 -218t-172 -85q-117 0 -197 116q-28 46 -64 46q-40 0 -61 -42t-21 -109h-156z" />
<glyph unicode="&#xd2;" horiz-adv-x="1797" d="M110 768q0 160 62.5 306t168.5 251.5t252 168t306 62.5t306 -62.5t251.5 -168t168 -251.5t62.5 -306t-62.5 -306t-168 -251.5t-251.5 -168t-306 -62.5t-306 62.5t-252 168t-168.5 251.5t-62.5 306zM358 768q0 -150 72 -274t196 -195t273 -71q150 0 274 71t195 195t71 274 t-71 274t-195 195t-274 71q-149 0 -273 -71t-196 -195t-72 -274zM520 2048h248l225 -381h-158z" />
<glyph unicode="&#xd3;" horiz-adv-x="1797" d="M110 768q0 160 62.5 306t168.5 251.5t252 168t306 62.5t306 -62.5t251.5 -168t168 -251.5t62.5 -306t-62.5 -306t-168 -251.5t-251.5 -168t-306 -62.5t-306 62.5t-252 168t-168.5 251.5t-62.5 306zM358 768q0 -150 72 -274t196 -195t273 -71q150 0 274 71t195 195t71 274 t-71 274t-195 195t-274 71q-149 0 -273 -71t-196 -195t-72 -274zM804 1667l225 381h248l-314 -381h-159z" />
<glyph unicode="&#xd4;" horiz-adv-x="1797" d="M110 768q0 160 62.5 306t168.5 251.5t252 168t306 62.5t306 -62.5t251.5 -168t168 -251.5t62.5 -306t-62.5 -306t-168 -251.5t-251.5 -168t-306 -62.5t-306 62.5t-252 168t-168.5 251.5t-62.5 306zM358 768q0 -150 72 -274t196 -195t273 -71q150 0 274 71t195 195t71 274 t-71 274t-195 195t-274 71q-149 0 -273 -71t-196 -195t-72 -274zM581 1667l225 381h185l225 -381h-164l-153 238l-151 -238h-167z" />
<glyph unicode="&#xd5;" horiz-adv-x="1797" d="M110 768q0 160 62.5 306t168.5 251.5t252 168t306 62.5t306 -62.5t251.5 -168t168 -251.5t62.5 -306t-62.5 -306t-168 -251.5t-251.5 -168t-306 -62.5t-306 62.5t-252 168t-168.5 251.5t-62.5 306zM358 768q0 -150 72 -274t196 -195t273 -71q150 0 274 71t195 195t71 274 t-71 274t-195 195t-274 71q-149 0 -273 -71t-196 -195t-72 -274zM530 1695q0 133 63 217.5t170 84.5q114 0 197 -115q30 -46 67 -46q79 0 79 151h156q0 -133 -61 -218t-172 -85q-117 0 -197 116q-28 46 -64 46q-40 0 -61 -42t-21 -109h-156z" />
<glyph unicode="&#xd6;" horiz-adv-x="1797" d="M110 768q0 160 62.5 306t168.5 251.5t252 168t306 62.5t306 -62.5t251.5 -168t168 -251.5t62.5 -306t-62.5 -306t-168 -251.5t-251.5 -168t-306 -62.5t-306 62.5t-252 168t-168.5 251.5t-62.5 306zM358 768q0 -150 72 -274t196 -195t273 -71q150 0 274 71t195 195t71 274 t-71 274t-195 195t-274 71q-149 0 -273 -71t-196 -195t-72 -274zM563 1853q0 55 39.5 94.5t93.5 39.5q56 0 96 -39.5t40 -94.5q0 -54 -40.5 -93.5t-95.5 -39.5q-54 0 -93.5 39.5t-39.5 93.5zM965 1853q0 55 39.5 94.5t93.5 39.5q55 0 94 -39t39 -95q0 -54 -39 -93.5 t-94 -39.5q-54 0 -93.5 39.5t-39.5 93.5z" />
<glyph unicode="&#xd7;" horiz-adv-x="1530" d="M256 256l379 379l-379 379l141 141l379 -379l381 379l138 -141l-379 -379l379 -379l-138 -141l-381 379l-379 -379z" />
<glyph unicode="&#xd8;" horiz-adv-x="1797" d="M110 768q0 160 62.5 306t168.5 251.5t252 168t306 62.5q199 0 371 -92l125 180l161 -98l-133 -189q124 -112 194 -265t70 -324q0 -160 -62.5 -306t-168 -251.5t-251.5 -168t-306 -62.5q-197 0 -369 92l-128 -185l-164 98l136 194q-124 112 -194 265t-70 324zM358 768 q0 -114 41.5 -213t117.5 -171l609 876q-107 48 -227 48q-149 0 -273 -71t-196 -195t-72 -274zM673 276q104 -48 226 -48q150 0 274 71t195 195t71 274q0 228 -156 384z" />
<glyph unicode="&#xd9;" horiz-adv-x="1538" d="M161 499v1037h251v-993q0 -142 101.5 -236.5t254.5 -94.5q154 0 256 94.5t102 236.5v993h251v-1037q0 -146 -79 -265t-218.5 -186.5t-311.5 -67.5t-311 67.5t-217.5 186t-78.5 265.5zM389 2048h248l226 -381h-159z" />
<glyph unicode="&#xda;" horiz-adv-x="1538" d="M161 499v1037h251v-993q0 -142 101.5 -236.5t254.5 -94.5q154 0 256 94.5t102 236.5v993h251v-1037q0 -146 -79 -265t-218.5 -186.5t-311.5 -67.5t-311 67.5t-217.5 186t-78.5 265.5zM673 1667l226 381h248l-315 -381h-159z" />
<glyph unicode="&#xdb;" horiz-adv-x="1538" d="M161 499v1037h251v-993q0 -142 101.5 -236.5t254.5 -94.5q154 0 256 94.5t102 236.5v993h251v-1037q0 -146 -79 -265t-218.5 -186.5t-311.5 -67.5t-311 67.5t-217.5 186t-78.5 265.5zM451 1667l225 381h184l225 -381h-163l-154 238l-151 -238h-166z" />
<glyph unicode="&#xdc;" horiz-adv-x="1538" d="M161 499v1037h251v-993q0 -142 101.5 -236.5t254.5 -94.5q154 0 256 94.5t102 236.5v993h251v-1037q0 -146 -79 -265t-218.5 -186.5t-311.5 -67.5t-311 67.5t-217.5 186t-78.5 265.5zM433 1853q0 55 39.5 94.5t93.5 39.5q56 0 95.5 -39.5t39.5 -94.5q0 -54 -40 -93.5 t-95 -39.5q-54 0 -93.5 39.5t-39.5 93.5zM835 1853q0 55 39.5 94.5t93.5 39.5q55 0 94 -39t39 -95q0 -54 -39 -93.5t-94 -39.5q-54 0 -93.5 39.5t-39.5 93.5z" />
<glyph unicode="&#xdd;" horiz-adv-x="1292" d="M-15 1536h294l369 -579l371 579h289l-535 -809v-727h-251v722zM553 1667l225 381h249l-315 -381h-159z" />
<glyph unicode="&#xde;" horiz-adv-x="1287" d="M184 0v1318v218h241v-218h356q182 0 311 -131t129 -317q0 -182 -128.5 -308.5t-311.5 -126.5h-356v-435h-241zM425 660h340q97 0 160 61.5t63 156.5q0 93 -63.5 154t-159.5 61h-340v-433z" />
<glyph unicode="&#xdf;" horiz-adv-x="1420" d="M184 0v1075q0 199 148 330t369 131q212 0 350.5 -121.5t138.5 -306.5t-135 -312q103 -60 162.5 -161t59.5 -223q0 -181 -118.5 -299.5t-293.5 -112.5h-271v228h228q88 2 150 55.5t62 144.5q0 100 -73.5 170t-179.5 70h-97v200h38q100 0 170.5 68.5t70.5 166.5 q0 96 -73 158.5t-186 62.5q-119 0 -199 -71t-80 -178v-1075h-241z" />
<glyph unicode="&#xe0;" d="M125 271q0 135 91.5 215t246.5 80h372v74q0 93 -65.5 146.5t-167.5 53.5q-103 0 -168 -51t-65 -141h-244q0 178 134.5 287t342.5 109q206 0 341 -116t135 -303v-295q0 -64 23.5 -97t58.5 -33h61v-200q-43 -20 -89 -20q-91 0 -157.5 42t-104.5 119q-58 -76 -158 -118.5 t-223 -42.5q-167 0 -265.5 78.5t-98.5 212.5zM223 1536h248l225 -381h-158zM379 279q0 -54 46 -86t125 -32q107 0 184.5 57.5t100.5 155.5v23h-300q-71 0 -113.5 -32t-42.5 -86z" />
<glyph unicode="&#xe1;" d="M125 271q0 135 91.5 215t246.5 80h372v74q0 93 -65.5 146.5t-167.5 53.5q-103 0 -168 -51t-65 -141h-244q0 178 134.5 287t342.5 109q206 0 341 -116t135 -303v-295q0 -64 23.5 -97t58.5 -33h61v-200q-43 -20 -89 -20q-91 0 -157.5 42t-104.5 119q-58 -76 -158 -118.5 t-223 -42.5q-167 0 -265.5 78.5t-98.5 212.5zM379 279q0 -54 46 -86t125 -32q107 0 184.5 57.5t100.5 155.5v23h-300q-71 0 -113.5 -32t-42.5 -86zM507 1155l225 381h248l-314 -381h-159z" />
<glyph unicode="&#xe2;" d="M125 271q0 135 91.5 215t246.5 80h372v74q0 93 -65.5 146.5t-167.5 53.5q-103 0 -168 -51t-65 -141h-244q0 178 134.5 287t342.5 109q206 0 341 -116t135 -303v-295q0 -64 23.5 -97t58.5 -33h61v-200q-43 -20 -89 -20q-91 0 -157.5 42t-104.5 119q-58 -76 -158 -118.5 t-223 -42.5q-167 0 -265.5 78.5t-98.5 212.5zM284 1155l225 381h185l225 -381h-164l-153 238l-151 -238h-167zM379 279q0 -54 46 -86t125 -32q107 0 184.5 57.5t100.5 155.5v23h-300q-71 0 -113.5 -32t-42.5 -86z" />
<glyph unicode="&#xe3;" d="M125 271q0 135 91.5 215t246.5 80h372v74q0 93 -65.5 146.5t-167.5 53.5q-103 0 -168 -51t-65 -141h-244q0 178 134.5 287t342.5 109q206 0 341 -116t135 -303v-295q0 -64 23.5 -97t58.5 -33h61v-200q-43 -20 -89 -20q-91 0 -157.5 42t-104.5 119q-58 -76 -158 -118.5 t-223 -42.5q-167 0 -265.5 78.5t-98.5 212.5zM233 1183q0 133 63 217.5t170 84.5q114 0 197 -115q30 -46 67 -46q79 0 79 151h156q0 -133 -61 -218t-172 -85q-117 0 -197 116q-28 46 -64 46q-40 0 -61 -42t-21 -109h-156zM379 279q0 -54 46 -86t125 -32q107 0 184.5 57.5 t100.5 155.5v23h-300q-71 0 -113.5 -32t-42.5 -86z" />
<glyph unicode="&#xe4;" d="M125 271q0 135 91.5 215t246.5 80h372v74q0 93 -65.5 146.5t-167.5 53.5q-103 0 -168 -51t-65 -141h-244q0 178 134.5 287t342.5 109q206 0 341 -116t135 -303v-295q0 -64 23.5 -97t58.5 -33h61v-200q-43 -20 -89 -20q-91 0 -157.5 42t-104.5 119q-58 -76 -158 -118.5 t-223 -42.5q-167 0 -265.5 78.5t-98.5 212.5zM266 1341q0 55 39.5 94.5t93.5 39.5q56 0 96 -39.5t40 -94.5q0 -54 -40.5 -93.5t-95.5 -39.5q-54 0 -93.5 39.5t-39.5 93.5zM379 279q0 -54 46 -86t125 -32q107 0 184.5 57.5t100.5 155.5v23h-300q-71 0 -113.5 -32t-42.5 -86z M668 1341q0 55 39.5 94.5t93.5 39.5q55 0 94 -39t39 -95q0 -54 -39 -93.5t-94 -39.5q-54 0 -93.5 39.5t-39.5 93.5z" />
<glyph unicode="&#xe5;" d="M125 271q0 135 91.5 215t246.5 80h372v74q0 93 -65.5 146.5t-167.5 53.5q-103 0 -168 -51t-65 -141h-244q0 178 134.5 287t342.5 109q206 0 341 -116t135 -303v-295q0 -64 23.5 -97t58.5 -33h61v-200q-43 -20 -89 -20q-91 0 -157.5 42t-104.5 119q-58 -76 -158 -118.5 t-223 -42.5q-167 0 -265.5 78.5t-98.5 212.5zM369 1344q0 96 68.5 163t164.5 67q94 0 160.5 -67t66.5 -163q0 -94 -67 -162t-160 -68q-96 0 -164.5 68t-68.5 162zM379 279q0 -54 46 -86t125 -32q107 0 184.5 57.5t100.5 155.5v23h-300q-71 0 -113.5 -32t-42.5 -86zM484 1344 q0 -52 34 -86t84 -34q51 0 85.5 34.5t34.5 85.5t-35 87t-85 36t-84 -36t-34 -87z" />
<glyph unicode="&#xe6;" horiz-adv-x="2004" d="M125 300q0 150 108 236t292 86h281v44q0 85 -58 138.5t-149 55.5q-76 2 -133.5 -34t-71.5 -94l-222 67q38 111 155 178t275 67q120 0 215 -39.5t153 -111.5q159 151 394 151q234 0 389 -148.5t159 -378.5l-2 -43h-848q10 -130 93 -211t212 -81q99 0 175 47.5t109 128.5 h243q-47 -170 -188 -274t-339 -104q-133 0 -245 49.5t-188 139.5q-94 -91 -205.5 -140t-226.5 -49q-172 0 -274.5 87.5t-102.5 232.5zM374 305q0 -63 44.5 -99.5t119.5 -36.5q78 0 159 46t143 125q-18 45 -26 108h-251q-89 0 -139 -37t-50 -106zM1083 648h563 q-35 90 -107 141t-172 51q-101 0 -175.5 -52t-108.5 -140z" />
<glyph unicode="&#xe7;" d="M97 512q0 148 71 270t197.5 192t282.5 70q201 0 345 -111t187 -290h-253q-37 80 -112 128t-167 48q-129 0 -218.5 -88.5t-89.5 -218.5t89.5 -218.5t218.5 -88.5q92 0 167 48t112 128h253q-41 -170 -172 -279t-317 -120l-56 -110q102 19 172.5 -34.5t70.5 -149.5 q0 -92 -63 -156t-155 -64q-75 0 -144 42t-94 103l116 41q17 -27 53 -45.5t69 -18.5q40 0 67.5 28.5t27.5 69.5q0 62 -52 82t-127 -13l-97 59l92 169q-209 25 -341.5 173t-132.5 354z" />
<glyph unicode="&#xe8;" horiz-adv-x="1290" d="M97 512q0 151 72 273t198.5 190.5t282.5 68.5q234 0 389 -148.5t159 -378.5l-2 -43h-848q10 -130 93 -211t212 -81q99 0 175 47.5t109 128.5h243q-47 -170 -188 -274t-339 -104q-157 0 -284 68.5t-199.5 190.5t-72.5 273zM282 1541h248l225 -381h-159zM369 648h563 q-35 90 -107 141t-172 51q-101 0 -175.5 -52t-108.5 -140z" />
<glyph unicode="&#xe9;" horiz-adv-x="1290" d="M97 512q0 151 72 273t198.5 190.5t282.5 68.5q234 0 389 -148.5t159 -378.5l-2 -43h-848q10 -130 93 -211t212 -81q99 0 175 47.5t109 128.5h243q-47 -170 -188 -274t-339 -104q-157 0 -284 68.5t-199.5 190.5t-72.5 273zM369 648h563q-35 90 -107 141t-172 51 q-101 0 -175.5 -52t-108.5 -140zM566 1160l225 381h248l-315 -381h-158z" />
<glyph unicode="&#xea;" horiz-adv-x="1290" d="M97 512q0 151 72 273t198.5 190.5t282.5 68.5q234 0 389 -148.5t159 -378.5l-2 -43h-848q10 -130 93 -211t212 -81q99 0 175 47.5t109 128.5h243q-47 -170 -188 -274t-339 -104q-157 0 -284 68.5t-199.5 190.5t-72.5 273zM343 1160l225 381h185l225 -381h-164l-154 238 l-151 -238h-166zM369 648h563q-35 90 -107 141t-172 51q-101 0 -175.5 -52t-108.5 -140z" />
<glyph unicode="&#xeb;" horiz-adv-x="1290" d="M97 512q0 151 72 273t198.5 190.5t282.5 68.5q234 0 389 -148.5t159 -378.5l-2 -43h-848q10 -130 93 -211t212 -81q99 0 175 47.5t109 128.5h243q-47 -170 -188 -274t-339 -104q-157 0 -284 68.5t-199.5 190.5t-72.5 273zM325 1347q0 55 39.5 94t93.5 39q56 0 96 -39 t40 -94q0 -54 -40.5 -94t-95.5 -40q-54 0 -93.5 40t-39.5 94zM369 648h563q-35 90 -107 141t-172 51q-101 0 -175.5 -52t-108.5 -140zM727 1347q0 55 39.5 94t93.5 39q56 0 94.5 -39t38.5 -94q0 -54 -39 -94t-94 -40q-54 0 -93.5 40t-39.5 94z" />
<glyph unicode="&#xec;" horiz-adv-x="606" d="M-74 1536h248l225 -381h-158zM182 0v1024h243v-1024h-243z" />
<glyph unicode="&#xed;" horiz-adv-x="606" d="M182 0v1024h243v-1024h-243zM210 1155l225 381h249l-315 -381h-159z" />
<glyph unicode="&#xee;" horiz-adv-x="606" d="M-13 1155l225 381h185l225 -381h-164l-153 238l-151 -238h-167zM182 0v1024h243v-1024h-243z" />
<glyph unicode="&#xef;" horiz-adv-x="606" d="M-31 1341q0 55 39.5 94.5t93.5 39.5q56 0 96 -39.5t40 -94.5q0 -54 -40.5 -93.5t-95.5 -39.5q-54 0 -93.5 39.5t-39.5 93.5zM182 0v1024h243v-1024h-243zM371 1341q0 55 39.5 94.5t93.5 39.5q55 0 94 -39t39 -95q0 -54 -39 -93.5t-94 -39.5q-54 0 -93.5 39.5t-39.5 93.5z " />
<glyph unicode="&#xf0;" horiz-adv-x="1300" d="M97 512q0 146 74.5 268.5t203.5 193t283 70.5q120 0 233 -46q-69 162 -192 264l-103 -130l-112 89l92 118q-128 56 -269 56l49 195q188 0 351 -87l97 123l112 -85l-89 -115q182 -141 288 -380.5t106 -533.5q0 -146 -74.5 -268.5t-204 -193t-284.5 -70.5q-154 0 -283 70.5 t-203.5 193t-74.5 268.5zM351 512q0 -129 89 -219.5t218 -90.5t219.5 90.5t90.5 219.5t-90.5 219.5t-219.5 90.5t-218 -90.5t-89 -219.5z" />
<glyph unicode="&#xf1;" horiz-adv-x="1200" d="M169 0v1024h243v-100q112 120 272 120q152 0 259 -110.5t107 -275.5v-658h-241v625q0 83 -56 138.5t-141 55.5t-142.5 -56t-57.5 -138v-625h-243zM243 1183q0 133 63 217.5t170 84.5q114 0 197 -115q30 -46 67 -46q79 0 79 151h156q0 -133 -61 -218t-172 -85 q-117 0 -197 116q-28 46 -64 46q-40 0 -61 -42t-21 -109h-156z" />
<glyph unicode="&#xf2;" horiz-adv-x="1295" d="M97 512q0 148 71 270t197.5 192t282.5 70t282 -70t197 -192t71 -270t-71 -270t-197 -192t-282 -70t-282.5 70t-197.5 192t-71 270zM269 1536h248l225 -381h-158zM340 512q0 -129 89 -218t219 -89q129 0 218 89t89 218t-89 218t-218 89q-130 0 -219 -89t-89 -218z" />
<glyph unicode="&#xf3;" horiz-adv-x="1295" d="M97 512q0 148 71 270t197.5 192t282.5 70t282 -70t197 -192t71 -270t-71 -270t-197 -192t-282 -70t-282.5 70t-197.5 192t-71 270zM340 512q0 -129 89 -218t219 -89q129 0 218 89t89 218t-89 218t-218 89q-130 0 -219 -89t-89 -218zM553 1155l225 381h249l-315 -381h-159 z" />
<glyph unicode="&#xf4;" horiz-adv-x="1295" d="M97 512q0 148 71 270t197.5 192t282.5 70t282 -70t197 -192t71 -270t-71 -270t-197 -192t-282 -70t-282.5 70t-197.5 192t-71 270zM330 1155l226 381h184l225 -381h-164l-153 238l-151 -238h-167zM340 512q0 -129 89 -218t219 -89q129 0 218 89t89 218t-89 218t-218 89 q-130 0 -219 -89t-89 -218z" />
<glyph unicode="&#xf5;" horiz-adv-x="1295" d="M97 512q0 148 71 270t197.5 192t282.5 70t282 -70t197 -192t71 -270t-71 -270t-197 -192t-282 -70t-282.5 70t-197.5 192t-71 270zM279 1183q0 133 63 217.5t170 84.5q114 0 197 -115q30 -46 67 -46q79 0 79 151h156q0 -133 -61 -218t-172 -85q-117 0 -197 116 q-28 46 -64 46q-40 0 -61 -42t-21 -109h-156zM340 512q0 -129 89 -218t219 -89q129 0 218 89t89 218t-89 218t-218 89q-130 0 -219 -89t-89 -218z" />
<glyph unicode="&#xf6;" horiz-adv-x="1295" d="M97 512q0 148 71 270t197.5 192t282.5 70t282 -70t197 -192t71 -270t-71 -270t-197 -192t-282 -70t-282.5 70t-197.5 192t-71 270zM312 1341q0 55 39.5 94.5t93.5 39.5q56 0 96 -39.5t40 -94.5q0 -54 -40.5 -93.5t-95.5 -39.5q-54 0 -93.5 39.5t-39.5 93.5zM340 512 q0 -129 89 -218t219 -89q129 0 218 89t89 218t-89 218t-218 89q-130 0 -219 -89t-89 -218zM714 1341q0 55 39.5 94.5t93.5 39.5q55 0 94 -39t39 -95q0 -54 -39 -93.5t-94 -39.5q-54 0 -93.5 39.5t-39.5 93.5z" />
<glyph unicode="&#xf7;" horiz-adv-x="1487" d="M131 499v128h1228v-128h-1228zM614 184q0 53 39.5 92t91.5 39t91.5 -39t39.5 -92q0 -55 -39 -92.5t-92 -37.5t-92 37.5t-39 92.5zM614 942q0 52 39.5 91.5t91.5 39.5t91.5 -39.5t39.5 -91.5q0 -55 -39 -92.5t-92 -37.5t-92 37.5t-39 92.5z" />
<glyph unicode="&#xf8;" horiz-adv-x="1295" d="M97 512q0 148 71 270t197.5 192t282.5 70q136 0 256 -56l79 115l108 -64l-82 -117q89 -74 139 -180.5t50 -229.5q0 -148 -71 -270t-197 -192t-282 -70q-139 0 -254 56l-82 -118l-110 67l85 120q-90 74 -140 179t-50 228zM340 512q0 -122 82 -212l346 496q-55 23 -120 23 q-130 0 -219 -89t-89 -218zM527 228q55 -23 121 -23q129 0 218 89t89 218q0 124 -85 212z" />
<glyph unicode="&#xf9;" horiz-adv-x="1141" d="M141 379v645h240v-614q0 -93 53 -149t137 -56q83 0 136 56t53 149v614h241v-645q0 -185 -114.5 -292t-315.5 -107t-315.5 107t-114.5 292zM200 1536h248l225 -381h-158z" />
<glyph unicode="&#xfa;" horiz-adv-x="1141" d="M141 379v645h240v-614q0 -93 53 -149t137 -56q83 0 136 56t53 149v614h241v-645q0 -185 -114.5 -292t-315.5 -107t-315.5 107t-114.5 292zM484 1155l225 381h248l-314 -381h-159z" />
<glyph unicode="&#xfb;" horiz-adv-x="1141" d="M141 379v645h240v-614q0 -93 53 -149t137 -56q83 0 136 56t53 149v614h241v-645q0 -185 -114.5 -292t-315.5 -107t-315.5 107t-114.5 292zM261 1155l225 381h185l225 -381h-164l-153 238l-151 -238h-167z" />
<glyph unicode="&#xfc;" horiz-adv-x="1141" d="M141 379v645h240v-614q0 -93 53 -149t137 -56q83 0 136 56t53 149v614h241v-645q0 -185 -114.5 -292t-315.5 -107t-315.5 107t-114.5 292zM243 1341q0 55 39.5 94.5t93.5 39.5q56 0 96 -39.5t40 -94.5q0 -54 -40.5 -93.5t-95.5 -39.5q-54 0 -93.5 39.5t-39.5 93.5z M645 1341q0 55 39.5 94.5t93.5 39.5q55 0 94 -39t39 -95q0 -54 -39 -93.5t-94 -39.5q-54 0 -93.5 39.5t-39.5 93.5z" />
<glyph unicode="&#xfd;" horiz-adv-x="1103" d="M5 1024h259l292 -758l281 758h261l-658 -1638h-256l244 596zM456 1155l225 381h248l-315 -381h-158z" />
<glyph unicode="&#xfe;" horiz-adv-x="1372" d="M184 -614v2252h241v-722q141 128 330 128q107 0 203 -41.5t165.5 -112.5t110.5 -170t41 -208t-41 -208t-110.5 -170t-165.5 -112.5t-203 -41.5q-189 0 -330 128v-722h-241zM425 512q0 -129 89 -218t218 -89t218 89t89 218t-89 218t-218 89t-218 -89t-89 -218z" />
<glyph unicode="&#xff;" horiz-adv-x="1103" d="M5 1024h259l292 -758l281 758h261l-658 -1638h-256l244 596zM215 1341q0 55 39.5 94.5t93.5 39.5q56 0 96 -39.5t40 -94.5q0 -54 -40.5 -93.5t-95.5 -39.5q-54 0 -93.5 39.5t-39.5 93.5zM617 1341q0 55 39.5 94.5t93.5 39.5q55 0 94 -39t39 -95q0 -54 -39 -93.5 t-94 -39.5q-54 0 -93.5 39.5t-39.5 93.5z" />
<glyph unicode="&#x152;" horiz-adv-x="2129" d="M110 768q0 160 62.5 306t168.5 251.5t252 168t306 62.5q139 0 261 -46v26h839v-225h-622v-430h535v-226h-535v-430h622v-225h-839v26q-122 -46 -261 -46q-160 0 -306 62.5t-252 168t-168.5 251.5t-62.5 306zM351 768q0 -150 73 -276t199 -199t276 -73q131 0 261 69v958 q-130 69 -261 69q-150 0 -276 -73t-199 -199t-73 -276z" />
<glyph unicode="&#x153;" horiz-adv-x="2155" d="M97 512q0 148 71 270t197.5 192t282.5 70q132 0 244 -51.5t186 -142.5q76 91 189.5 142.5t245.5 51.5q234 0 389 -148.5t159 -378.5l-3 -43h-847q10 -130 93 -211t212 -81q99 0 175 47.5t109 128.5h243q-47 -170 -188 -274t-339 -104q-134 0 -248 51.5t-190 142.5 q-74 -91 -186 -142.5t-244 -51.5q-156 0 -282.5 70t-197.5 192t-71 270zM340 512q0 -129 89 -218t219 -89q129 0 218 89t89 218t-89 218t-218 89q-130 0 -219 -89t-89 -218zM1231 648h564q-35 90 -107 141t-172 51q-101 0 -176 -52t-109 -140z" />
<glyph unicode="&#x178;" horiz-adv-x="1292" d="M-15 1536h294l369 -579l371 579h289l-535 -809v-727h-251v722zM312 1853q0 55 39.5 94.5t93.5 39.5q56 0 96 -39.5t40 -94.5q0 -54 -40.5 -93.5t-95.5 -39.5q-54 0 -93.5 39.5t-39.5 93.5zM714 1853q0 55 39.5 94.5t93.5 39.5q55 0 94 -39t39 -95q0 -54 -39 -93.5 t-94 -39.5q-54 0 -93.5 39.5t-39.5 93.5z" />
<glyph unicode="&#x2c6;" horiz-adv-x="179" d="M113 1155l225 381h184l226 -381h-164l-154 238l-151 -238h-166z" />
<glyph unicode="&#x2dc;" horiz-adv-x="130" d="M46 1244q0 133 63 217.5t170 84.5q114 0 197 -115q30 -46 67 -46q79 0 79 151h156q0 -132 -61 -217t-172 -85q-118 0 -197 115q-28 46 -64 46q-40 0 -61 -42t-21 -109h-156z" />
<glyph unicode="&#x2000;" horiz-adv-x="1024" />
<glyph unicode="&#x2001;" horiz-adv-x="2048" />
<glyph unicode="&#x2002;" horiz-adv-x="1024" />
<glyph unicode="&#x2003;" horiz-adv-x="2048" />
<glyph unicode="&#x2004;" horiz-adv-x="682" />
<glyph unicode="&#x2005;" horiz-adv-x="512" />
<glyph unicode="&#x2006;" horiz-adv-x="341" />
<glyph unicode="&#x2007;" horiz-adv-x="341" />
<glyph unicode="&#x2008;" horiz-adv-x="256" />
<glyph unicode="&#x2009;" horiz-adv-x="409" />
<glyph unicode="&#x200a;" horiz-adv-x="113" />
<glyph unicode="&#x2010;" horiz-adv-x="965" d="M123 435v195h717v-195h-717z" />
<glyph unicode="&#x2011;" horiz-adv-x="965" d="M123 435v195h717v-195h-717z" />
<glyph unicode="&#x2012;" horiz-adv-x="965" d="M123 435v195h717v-195h-717z" />
<glyph unicode="&#x2013;" horiz-adv-x="1272" d="M123 435v195h1024v-195h-1024z" />
<glyph unicode="&#x2014;" horiz-adv-x="2048" d="M0 435v195h2048v-195h-2048z" />
<glyph unicode="&#x2018;" horiz-adv-x="483" d="M51 940l256 616h144l-172 -616h-228z" />
<glyph unicode="&#x2019;" horiz-adv-x="404" d="M90 947l171 617h228l-256 -617h-143z" />
<glyph unicode="&#x201a;" horiz-adv-x="501" d="M61 -397l172 617h228l-256 -617h-144z" />
<glyph unicode="&#x201c;" horiz-adv-x="929" d="M77 940l256 616h143l-171 -616h-228zM479 940l256 616h143l-171 -616h-228z" />
<glyph unicode="&#x201d;" horiz-adv-x="913" d="M44 998l171 617h228l-256 -617h-143zM453 1001l172 617h227l-256 -617h-143z" />
<glyph unicode="&#x201e;" horiz-adv-x="901" d="M61 -397l172 617h228l-256 -617h-144zM458 -397l172 617h228l-256 -617h-144z" />
<glyph unicode="&#x2022;" horiz-adv-x="1236" d="M233 678q0 158 115 274t272 116q154 0 269 -116.5t115 -273.5q0 -160 -114.5 -272t-269.5 -112q-159 0 -273 112t-114 272z" />
<glyph unicode="&#x2026;" horiz-adv-x="1784" d="M123 146q0 68 49.5 117t116.5 49q68 0 117.5 -49.5t49.5 -116.5t-49.5 -116.5t-117.5 -49.5q-67 0 -116.5 49t-49.5 117zM742 146q0 67 49.5 116.5t117.5 49.5q67 0 116.5 -49t49.5 -117t-49.5 -117t-116.5 -49q-68 0 -117.5 49.5t-49.5 116.5zM1370 146q0 68 49 117 t117 49t117 -49t49 -117t-49 -117t-117 -49t-117 49t-49 117z" />
<glyph unicode="&#x202f;" horiz-adv-x="409" />
<glyph unicode="&#x2039;" horiz-adv-x="768" d="M110 571l312 376h198l-313 -376l313 -376h-198z" />
<glyph unicode="&#x203a;" horiz-adv-x="768" d="M151 195l310 376l-310 376h195l312 -376l-312 -376h-195z" />
<glyph unicode="&#x205f;" horiz-adv-x="512" />
<glyph unicode="&#x20ac;" horiz-adv-x="1551" d="M23 517v159h133q-5 52 -5 92q0 37 5 84h-133v159h166q76 243 281.5 394t469.5 151q198 0 389 -110l-69 -222q-69 50 -153 77.5t-167 27.5q-166 0 -301 -87t-204 -231h758l-49 -159h-757q-6 -56 -6 -84q0 -42 8 -92h702l-52 -159h-601q70 -141 204 -225.5t298 -84.5 q103 0 208.5 43t180.5 116v-276q-191 -110 -389 -110q-262 0 -466.5 149t-284.5 388h-166z" />
<glyph unicode="&#x2122;" horiz-adv-x="1687" d="M90 1423v113h504v-113h-190v-604h-130v604h-184zM735 819v717h138l243 -361l246 361h136v-717h-128v515l-254 -377l-253 374v-512h-128z" />
<glyph unicode="&#x25fc;" horiz-adv-x="1024" d="M0 0v1024h1024v-1024h-1024z" />
</font>
</defs>
</svg>
