<?xml version="1.0" encoding="utf-8"?>
<!-- Generator: Adobe Illustrator 16.0.2, SVG Export Plug-In . SVG Version: 6.00 Build 0)  -->
<!DOCTYPE svg PUBLIC "-//W3C//DTD SVG 1.1//EN" "http://www.w3.org/Graphics/SVG/1.1/DTD/svg11.dtd">
<svg version="1.1" id="Layer_1" xmlns="http://www.w3.org/2000/svg" xmlns:xlink="http://www.w3.org/1999/xlink" x="0px" y="0px"
	 width="200px" height="200px" viewBox="0 0 200 200" enable-background="new 0 0 200 200" xml:space="preserve">
<path fill="#126CFC" d="M59.376,120.408l34.636,41.203c1.534,1.825,3.779,2.691,5.988,2.55c2.21,0.142,4.456-0.725,5.989-2.55
	l34.635-41.203c2.563-3.051,2.169-7.601-0.88-10.164c-3.051-2.564-7.6-2.17-10.164,0.88l-22.833,27.163V40.273
	c0-1.323-3.031-4.448-6.747-4.448c-3.717,0-6.709,3.125-6.709,4.448v98.058l-22.87-27.207c-2.563-3.05-7.114-3.444-10.164-0.88
	C57.207,112.808,56.813,117.357,59.376,120.408z"/>
<path fill="#FFFFFF" stroke="#000000" stroke-width="6" stroke-miterlimit="10" d="M-167.995,2.308
	c-3.081,3.664-8.547,4.138-12.211,1.058l0,0c-3.664-3.08-4.138-8.547-1.058-12.211l41.61-49.501c3.08-3.664,8.547-4.137,12.211-1.06
	l0,0c3.664,3.08,4.137,8.547,1.058,12.211L-167.995,2.308z"/>
<path fill="#FFFFFF" stroke="#000000" stroke-width="6" stroke-miterlimit="10" d="M-96.921,2.308
	c3.08,3.664,8.547,4.138,12.211,1.058l0,0c3.664-3.08,4.139-8.547,1.059-12.211l-41.611-49.501c-3.08-3.664-8.547-4.137-12.211-1.06
	l0,0c-3.664,3.08-4.137,8.547-1.058,12.211L-96.921,2.308z"/>
<path fill="#FFFFFF" stroke="#000000" stroke-width="6" stroke-miterlimit="10" d="M-140.564-55.893c0-1.59,3.619-2.879,8.083-2.879
	l0,0c4.464,0,8.083,1.289,8.083,2.879v143.32c0,1.59-3.619,2.879-8.083,2.879l0,0c-4.464,0-8.083-1.289-8.083-2.879V-55.893z"/>
<g>
	<path fill="#126CFC" d="M100,184c-46.316,0-84-37.683-84-84c0-46.316,37.684-84,84-84c46.318,0,84,37.684,84,84
		C184,146.317,146.317,184,100,184 M100,200c55.229,0,100-44.771,100-100S155.229,0,100,0S0,44.771,0,100S44.771,200,100,200
		L100,200z"/>
</g>
</svg>
