<?xml version="1.0" encoding="utf-8"?>
<!-- Generator: Adobe Illustrator 16.0.2, SVG Export Plug-In . SVG Version: 6.00 Build 0)  -->
<!DOCTYPE svg PUBLIC "-//W3C//DTD SVG 1.1//EN" "http://www.w3.org/Graphics/SVG/1.1/DTD/svg11.dtd">
<svg version="1.1" id="Layer_1" xmlns="http://www.w3.org/2000/svg" xmlns:xlink="http://www.w3.org/1999/xlink" x="0px" y="0px"
	 width="100px" height="100px" viewBox="0 0 100 100" enable-background="new 0 0 100 100" xml:space="preserve">
<path fill="#126CFC" d="M100,100c-33.373,0-66.652,0-100,0C0,66.663,0,33.37,0,0c33.302,0,66.609,0,100,0
	C100,33.29,100,66.605,100,100z M92.525,92.323c0-28.28,0-56.466,0-84.626c-28.405,0-56.731,0-85.042,0c0,28.255,0,56.417,0,84.626
	C35.848,92.323,64.148,92.323,92.525,92.323z"/>
<g>
	<path fill="#126CFC" d="M70.861,47.68c0,5.609-0.004,11.216,0.003,16.827c0.001,1.615,0.028,3.233,0.231,4.841
		c0.064,0.518-0.201,0.742-0.623,0.926c-2.494,1.074-5.093,1.78-7.769,2.201c-3.001,0.474-6.001,0.521-8.968-0.219
		c-5.589-1.395-9.233-4.882-10.807-10.406c-1.376-4.828-1.407-9.676,0.625-14.35c2.502-5.76,6.871-9.251,13.117-10.258
		c1.583-0.255,3.188-0.319,4.765,0.118c0.504,0.14,0.396-0.21,0.397-0.46c0.004-2.891,0.003-5.781,0.003-8.672
		c0-0.983,0.064-1.048,1.055-1.048c2.392,0,4.782-0.001,7.174,0c0.734,0,0.826,0.089,0.826,0.834c0,6.556,0,13.112,0,19.667
		C70.882,47.68,70.873,47.68,70.861,47.68z M61.865,55.009c-0.016,0-0.03,0-0.047,0c0-3.284-0.01-6.568,0.014-9.853
		c0.003-0.454-0.159-0.639-0.566-0.747c-1.518-0.401-3.029-0.439-4.521,0.066c-2.367,0.801-3.791,2.55-4.61,4.818
		c-1.133,3.129-1.069,6.34-0.479,9.564c0.188,1.018,0.521,1.994,0.993,2.918c1.76,3.447,4.987,4.515,8.682,3.732
		c0.414-0.088,0.548-0.273,0.547-0.697C61.857,61.543,61.865,58.275,61.865,55.009z"/>
	<path fill="#126CFC" d="M28.894,49.636c0-7.157,0-14.314,0-21.474c0-0.894,0.088-0.984,0.964-0.984
		c2.408-0.001,4.817-0.002,7.227,0c0.764,0.001,0.88,0.114,0.88,0.858c0.001,14.402,0.001,28.803,0,43.205
		c-0.001,0.776-0.162,0.94-0.939,0.942c-2.392,0.008-4.784,0.008-7.175,0c-0.815-0.002-0.956-0.151-0.956-0.972
		C28.894,64.021,28.894,56.828,28.894,49.636z"/>
</g>
</svg>
