<?xml version="1.0" encoding="utf-8"?>
<!-- Generator: Adobe Illustrator 16.0.2, SVG Export Plug-In . SVG Version: 6.00 Build 0)  -->
<!DOCTYPE svg PUBLIC "-//W3C//DTD SVG 1.1//EN" "http://www.w3.org/Graphics/SVG/1.1/DTD/svg11.dtd">
<svg version="1.1" id="Layer_1" xmlns="http://www.w3.org/2000/svg" xmlns:xlink="http://www.w3.org/1999/xlink" x="0px" y="0px"
	 width="200px" height="200px" viewBox="0 0 200 200" enable-background="new 0 0 200 200" xml:space="preserve">
<path fill="#126CFC" d="M140.624,79.592l-34.636-41.204c-1.534-1.825-3.779-2.691-5.988-2.549c-2.21-0.142-4.456,0.724-5.989,2.549
	L59.376,79.592c-2.564,3.05-2.169,7.6,0.88,10.164c3.05,2.564,7.6,2.17,10.164-0.88l22.833-27.163v98.014
	c0,1.323,3.031,4.448,6.747,4.448c3.717,0,6.709-3.125,6.709-4.448V61.669l22.87,27.207c2.563,3.05,7.114,3.444,10.164,0.88
	S143.188,82.642,140.624,79.592z"/>
<path fill="#FFFFFF" stroke="#000000" stroke-width="6" stroke-miterlimit="10" d="M-167.995,2.308
	c-3.081,3.664-8.547,4.138-12.211,1.058l0,0c-3.664-3.08-4.138-8.547-1.058-12.211l41.61-49.501
	c3.08-3.664,8.547-4.137,12.211-1.059l0,0c3.664,3.08,4.137,8.547,1.058,12.211L-167.995,2.308z"/>
<path fill="#FFFFFF" stroke="#000000" stroke-width="6" stroke-miterlimit="10" d="M-96.921,2.308
	c3.08,3.664,8.547,4.138,12.211,1.058l0,0c3.664-3.08,4.139-8.547,1.059-12.211l-41.611-49.501
	c-3.08-3.664-8.547-4.137-12.211-1.059l0,0c-3.664,3.08-4.137,8.547-1.058,12.211L-96.921,2.308z"/>
<path fill="#FFFFFF" stroke="#000000" stroke-width="6" stroke-miterlimit="10" d="M-140.564-55.893c0-1.59,3.619-2.879,8.083-2.879
	l0,0c4.464,0,8.083,1.289,8.083,2.879v143.32c0,1.59-3.619,2.879-8.083,2.879l0,0c-4.464,0-8.083-1.289-8.083-2.879V-55.893z"/>
<g>
	<path fill="#126CFC" d="M100,16c46.316,0,84,37.682,84,84c0,46.316-37.684,84-84,84c-46.318,0-84-37.684-84-84
		C16,53.682,53.682,16,100,16 M100,0C44.771,0,0,44.771,0,100c0,55.229,44.771,100,100,100c55.229,0,100-44.771,100-100
		C200,44.771,155.229,0,100,0L100,0z"/>
</g>
</svg>
